<?xml version="1.0" encoding="UTF-8" standalone="no"?>
<!-- Created with Inkscape (http://www.inkscape.org/) -->

<svg
   xmlns:dc="http://purl.org/dc/elements/1.1/"
   xmlns:cc="http://creativecommons.org/ns#"
   xmlns:rdf="http://www.w3.org/1999/02/22-rdf-syntax-ns#"
   xmlns:svg="http://www.w3.org/2000/svg"
   xmlns="http://www.w3.org/2000/svg"
   xmlns:sodipodi="http://sodipodi.sourceforge.net/DTD/sodipodi-0.dtd"
   xmlns:inkscape="http://www.inkscape.org/namespaces/inkscape"
   width="12in"
   height="12in"
   viewBox="0 0 1080 1080"
   id="svg59472"
   version="1.1"
   inkscape:version="0.91 r13725"
   sodipodi:docname="sides.svg"
   inkscape:export-filename="/Users/gustavosilveira/Dropbox/Bit Controllers/_Clientes/_DJ 0/PCB 6/enclosure/Finais/Wood 12x12 (linhas).png"
   inkscape:export-xdpi="300"
   inkscape:export-ydpi="300">
  <defs
     id="defs59474" />
  <sodipodi:namedview
     id="base"
     pagecolor="#ffffff"
     bordercolor="#666666"
     borderopacity="1.0"
     inkscape:pageopacity="0.0"
     inkscape:pageshadow="2"
     inkscape:zoom="0.7071068"
     inkscape:cx="502.81107"
     inkscape:cy="770.77389"
     inkscape:document-units="cm"
     inkscape:current-layer="layer1"
     showgrid="false"
     units="in"
     inkscape:window-width="1280"
     inkscape:window-height="751"
     inkscape:window-x="25"
     inkscape:window-y="66"
     inkscape:window-maximized="0"
     showguides="false" />
  <metadata
     id="metadata59477">
    <rdf:RDF>
      <cc:Work
         rdf:about="">
        <dc:format>image/svg+xml</dc:format>
        <dc:type
           rdf:resource="http://purl.org/dc/dcmitype/StillImage" />
        <dc:title></dc:title>
      </cc:Work>
    </rdf:RDF>
  </metadata>
  <g
     inkscape:label="Layer 1"
     inkscape:groupmode="layer"
     id="layer1"
     transform="translate(0,27.63785)">
    <g
       id="g4474"
       transform="translate(12,0)">
      <g
         id="g4433">
        <path
           inkscape:connector-curvature="0"
           id="path4419"
           d="m 48.366898,10.741718 0,83.382799 -10.64258,0 c -0.005,0 -0.009,0 -0.0137,0 -2.93689,0 -5.30078,2.36388 -5.30078,5.30078 l 0,112.236313 c 0,2.9369 2.36389,5.30078 5.30078,5.30078 l 0.0137,0 10.64258,0 0,83.38281 0,0.002 0.002,0 c 37.65705,-16.70757 59.618652,-16.47771 97.750052,0 l 0,-0.002 0,-83.38281 10.6426,0 c 0,0 0.01,0 0.014,0 2.9369,0 5.3007,-2.36388 5.3007,-5.30078 l 0,-112.236313 c 0,-2.9369 -2.3638,-5.30078 -5.3007,-5.30078 l -0.014,0 -10.6426,0 0,-83.382799 c -37.6573,16.70821 -59.618202,16.47655 -97.750052,0 l -0.002,0 z"
           style="fill:none;fill-opacity:1;stroke:#ff0000;stroke-width:0.07086614;stroke-miterlimit:4;stroke-dasharray:none;stroke-opacity:1" />
        <path
           style="fill:none;fill-opacity:1;stroke:#ff0000;stroke-width:0.07086614;stroke-miterlimit:4;stroke-dasharray:none;stroke-opacity:1"
           d="m 178.10418,10.741718 0,83.382799 -10.64258,0 c -0.005,0 -0.009,0 -0.0137,0 -2.93689,0 -5.30078,2.36388 -5.30078,5.30078 l 0,112.236313 c 0,2.9369 2.36389,5.30078 5.30078,5.30078 l 0.0137,0 10.64258,0 0,83.38281 0,0.002 0.002,0 c 37.65705,-16.70757 59.61865,-16.47771 97.75005,0 l 0,-0.002 0,-83.38281 10.6426,0 c 0,0 0.01,0 0.014,0 2.9369,0 5.3007,-2.36388 5.3007,-5.30078 l 0,-112.236312 c 0,-2.9369 -2.3638,-5.30078 -5.3007,-5.30078 l -0.014,0 -10.6426,0 0,-83.382799 c -37.6573,16.70821 -59.6182,16.47655 -97.75005,0 l -0.002,0 z"
           id="path4421"
           inkscape:connector-curvature="0" />
        <path
           inkscape:connector-curvature="0"
           id="path4423"
           d="m 307.84146,10.741717 0,83.382804 -10.64258,0 c -0.005,0 -0.009,0 -0.0137,0 -2.93689,0 -5.30078,2.36388 -5.30078,5.30078 l 0,112.236309 c 0,2.9369 2.36389,5.30078 5.30078,5.30078 l 0.0137,0 10.64258,0 0,83.38281 0,0.002 0.002,0 c 37.65705,-16.70757 59.61865,-16.47771 97.75005,0 l 0,-0.002 0,-83.38281 10.6426,0 c 0,0 0.01,0 0.014,0 2.9369,0 5.3007,-2.36388 5.3007,-5.30078 l 0,-112.236309 c 0,-2.9369 -2.3638,-5.30078 -5.3007,-5.30078 l -0.014,0 -10.6426,0 0,-83.382804 c -37.6573,16.70821 -59.6182,16.47655 -97.75005,0 l -0.002,0 z"
           style="fill:none;fill-opacity:1;stroke:#ff0000;stroke-width:0.07086614;stroke-miterlimit:4;stroke-dasharray:none;stroke-opacity:1" />
        <path
           style="fill:none;fill-opacity:1;stroke:#ff0000;stroke-width:0.07086614;stroke-miterlimit:4;stroke-dasharray:none;stroke-opacity:1"
           d="m 437.57874,10.741718 0,83.382801 -10.64258,0 c -0.005,0 -0.009,0 -0.0137,0 -2.93689,0 -5.30078,2.36388 -5.30078,5.30078 l 0,112.236311 c 0,2.9369 2.36389,5.30078 5.30078,5.30078 l 0.0137,0 10.64258,0 0,83.38281 0,0.002 0.002,0 c 37.65705,-16.70757 59.61865,-16.47771 97.75005,0 l 0,-0.002 0,-83.38281 10.6426,0 c 0,0 0.01,0 0.014,0 2.9369,0 5.3007,-2.36388 5.3007,-5.30078 l 0,-112.236311 c 0,-2.9369 -2.3638,-5.30078 -5.3007,-5.30078 l -0.014,0 -10.6426,0 0,-83.382801 c -37.6573,16.70821 -59.6182,16.47655 -97.75005,0 l -0.002,0 z"
           id="path4425"
           inkscape:connector-curvature="0" />
        <path
           inkscape:connector-curvature="0"
           id="path4427"
           d="m 567.31602,10.741718 0,83.382801 -10.64258,0 c -0.005,0 -0.009,0 -0.0137,0 -2.93689,0 -5.30078,2.363881 -5.30078,5.300781 l 0,112.23631 c 0,2.9369 2.36389,5.30078 5.30078,5.30078 l 0.0137,0 10.64258,0 0,83.38281 0,0.002 0.002,0 c 37.65705,-16.70757 59.61865,-16.47771 97.75005,0 l 0,-0.002 0,-83.38281 10.6426,0 c 0,0 0.01,0 0.014,0 2.9369,0 5.3007,-2.36388 5.3007,-5.30078 l 0,-112.23631 c 0,-2.9369 -2.3638,-5.300781 -5.3007,-5.300781 l -0.014,0 -10.6426,0 0,-83.382801 c -37.6573,16.70821 -59.6182,16.47655 -97.75005,0 l -0.002,0 z"
           style="fill:none;fill-opacity:1;stroke:#ff0000;stroke-width:0.07086614;stroke-miterlimit:4;stroke-dasharray:none;stroke-opacity:1" />
        <path
           inkscape:connector-curvature="0"
           id="path4429"
           d="m 697.0533,10.741717 0,83.382801 -10.64258,0 c -0.005,0 -0.009,0 -0.0137,0 -2.93689,0 -5.30078,2.36388 -5.30078,5.30078 l 0,112.236312 c 0,2.9369 2.36389,5.30078 5.30078,5.30078 l 0.0137,0 10.64258,0 0,83.38281 0,0.002 0.002,0 c 37.65705,-16.70757 59.61865,-16.47771 97.75005,0 l 0,-0.002 0,-83.38281 10.6426,0 c 0,0 0.01,0 0.014,0 2.9369,0 5.3007,-2.36388 5.3007,-5.30078 l 0,-112.236312 c 0,-2.9369 -2.3638,-5.30078 -5.3007,-5.30078 l -0.014,0 -10.6426,0 0,-83.382801 c -37.6573,16.70821 -59.6182,16.47655 -97.75005,0 l -0.002,0 z"
           style="fill:none;fill-opacity:1;stroke:#ff0000;stroke-width:0.07086614;stroke-miterlimit:4;stroke-dasharray:none;stroke-opacity:1" />
        <path
           style="fill:none;fill-opacity:1;stroke:#ff0000;stroke-width:0.07086614;stroke-miterlimit:4;stroke-dasharray:none;stroke-opacity:1"
           d="m 826.79058,10.741717 0,83.382801 -10.64258,0 c -0.005,0 -0.009,0 -0.0137,0 -2.93689,0 -5.30078,2.363881 -5.30078,5.300781 l 0,112.236311 c 0,2.9369 2.36389,5.30078 5.30078,5.30078 l 0.0137,0 10.64258,0 0,83.38281 0,0.002 0.002,0 c 37.65705,-16.70757 59.61865,-16.47771 97.75005,0 l 0,-0.002 0,-83.38281 10.6426,0 c 0,0 0.01,0 0.014,0 2.9369,0 5.3007,-2.36388 5.3007,-5.30078 l 0,-112.236311 c 0,-2.9369 -2.3638,-5.300781 -5.3007,-5.300781 l -0.014,0 -10.6426,0 0,-83.382801 c -37.6573,16.70821 -59.6182,16.47655 -97.75005,0 l -0.002,0 z"
           id="path4431"
           inkscape:connector-curvature="0" />
      </g>
      <g
         transform="translate(21.213203,294.15641)"
         id="g4442">
        <path
           style="fill:none;fill-opacity:1;stroke:#ff0000;stroke-width:0.07086614;stroke-miterlimit:4;stroke-dasharray:none;stroke-opacity:1"
           d="m 48.366898,10.741718 0,83.382799 -10.64258,0 c -0.005,0 -0.009,0 -0.0137,0 -2.93689,0 -5.30078,2.36388 -5.30078,5.30078 l 0,112.236313 c 0,2.9369 2.36389,5.30078 5.30078,5.30078 l 0.0137,0 10.64258,0 0,83.38281 0,0.002 0.002,0 c 37.65705,-16.70757 59.618652,-16.47771 97.750052,0 l 0,-0.002 0,-83.38281 10.6426,0 c 0,0 0.01,0 0.014,0 2.9369,0 5.3007,-2.36388 5.3007,-5.30078 l 0,-112.236313 c 0,-2.9369 -2.3638,-5.30078 -5.3007,-5.30078 l -0.014,0 -10.6426,0 0,-83.382799 c -37.6573,16.70821 -59.618202,16.47655 -97.750052,0 l -0.002,0 z"
           id="path4444"
           inkscape:connector-curvature="0" />
        <path
           inkscape:connector-curvature="0"
           id="path4446"
           d="m 178.10418,10.741718 0,83.382799 -10.64258,0 c -0.005,0 -0.009,0 -0.0137,0 -2.93689,0 -5.30078,2.36388 -5.30078,5.30078 l 0,112.236313 c 0,2.9369 2.36389,5.30078 5.30078,5.30078 l 0.0137,0 10.64258,0 0,83.38281 0,0.002 0.002,0 c 37.65705,-16.70757 59.61865,-16.47771 97.75005,0 l 0,-0.002 0,-83.38281 10.6426,0 c 0,0 0.01,0 0.014,0 2.9369,0 5.3007,-2.36388 5.3007,-5.30078 l 0,-112.236312 c 0,-2.9369 -2.3638,-5.30078 -5.3007,-5.30078 l -0.014,0 -10.6426,0 0,-83.382799 c -37.6573,16.70821 -59.6182,16.47655 -97.75005,0 l -0.002,0 z"
           style="fill:none;fill-opacity:1;stroke:#ff0000;stroke-width:0.07086614;stroke-miterlimit:4;stroke-dasharray:none;stroke-opacity:1" />
        <path
           style="fill:none;fill-opacity:1;stroke:#ff0000;stroke-width:0.07086614;stroke-miterlimit:4;stroke-dasharray:none;stroke-opacity:1"
           d="m 307.84146,10.741717 0,83.382804 -10.64258,0 c -0.005,0 -0.009,0 -0.0137,0 -2.93689,0 -5.30078,2.36388 -5.30078,5.30078 l 0,112.236309 c 0,2.9369 2.36389,5.30078 5.30078,5.30078 l 0.0137,0 10.64258,0 0,83.38281 0,0.002 0.002,0 c 37.65705,-16.70757 59.61865,-16.47771 97.75005,0 l 0,-0.002 0,-83.38281 10.6426,0 c 0,0 0.01,0 0.014,0 2.9369,0 5.3007,-2.36388 5.3007,-5.30078 l 0,-112.236309 c 0,-2.9369 -2.3638,-5.30078 -5.3007,-5.30078 l -0.014,0 -10.6426,0 0,-83.382804 c -37.6573,16.70821 -59.6182,16.47655 -97.75005,0 l -0.002,0 z"
           id="path4448"
           inkscape:connector-curvature="0" />
        <path
           inkscape:connector-curvature="0"
           id="path4450"
           d="m 437.57874,10.741718 0,83.382801 -10.64258,0 c -0.005,0 -0.009,0 -0.0137,0 -2.93689,0 -5.30078,2.36388 -5.30078,5.30078 l 0,112.236311 c 0,2.9369 2.36389,5.30078 5.30078,5.30078 l 0.0137,0 10.64258,0 0,83.38281 0,0.002 0.002,0 c 37.65705,-16.70757 59.61865,-16.47771 97.75005,0 l 0,-0.002 0,-83.38281 10.6426,0 c 0,0 0.01,0 0.014,0 2.9369,0 5.3007,-2.36388 5.3007,-5.30078 l 0,-112.236311 c 0,-2.9369 -2.3638,-5.30078 -5.3007,-5.30078 l -0.014,0 -10.6426,0 0,-83.382801 c -37.6573,16.70821 -59.6182,16.47655 -97.75005,0 l -0.002,0 z"
           style="fill:none;fill-opacity:1;stroke:#ff0000;stroke-width:0.07086614;stroke-miterlimit:4;stroke-dasharray:none;stroke-opacity:1" />
        <path
           style="fill:none;fill-opacity:1;stroke:#ff0000;stroke-width:0.07086614;stroke-miterlimit:4;stroke-dasharray:none;stroke-opacity:1"
           d="m 567.31602,10.741718 0,83.382801 -10.64258,0 c -0.005,0 -0.009,0 -0.0137,0 -2.93689,0 -5.30078,2.363881 -5.30078,5.300781 l 0,112.23631 c 0,2.9369 2.36389,5.30078 5.30078,5.30078 l 0.0137,0 10.64258,0 0,83.38281 0,0.002 0.002,0 c 37.65705,-16.70757 59.61865,-16.47771 97.75005,0 l 0,-0.002 0,-83.38281 10.6426,0 c 0,0 0.01,0 0.014,0 2.9369,0 5.3007,-2.36388 5.3007,-5.30078 l 0,-112.23631 c 0,-2.9369 -2.3638,-5.300781 -5.3007,-5.300781 l -0.014,0 -10.6426,0 0,-83.382801 c -37.6573,16.70821 -59.6182,16.47655 -97.75005,0 l -0.002,0 z"
           id="path4452"
           inkscape:connector-curvature="0" />
        <path
           style="fill:none;fill-opacity:1;stroke:#ff0000;stroke-width:0.07086614;stroke-miterlimit:4;stroke-dasharray:none;stroke-opacity:1"
           d="m 697.0533,10.741717 0,83.382801 -10.64258,0 c -0.005,0 -0.009,0 -0.0137,0 -2.93689,0 -5.30078,2.36388 -5.30078,5.30078 l 0,112.236312 c 0,2.9369 2.36389,5.30078 5.30078,5.30078 l 0.0137,0 10.64258,0 0,83.38281 0,0.002 0.002,0 c 37.65705,-16.70757 59.61865,-16.47771 97.75005,0 l 0,-0.002 0,-83.38281 10.6426,0 c 0,0 0.01,0 0.014,0 2.9369,0 5.3007,-2.36388 5.3007,-5.30078 l 0,-112.236312 c 0,-2.9369 -2.3638,-5.30078 -5.3007,-5.30078 l -0.014,0 -10.6426,0 0,-83.382801 c -37.6573,16.70821 -59.6182,16.47655 -97.75005,0 l -0.002,0 z"
           id="path4454"
           inkscape:connector-curvature="0" />
        <path
           inkscape:connector-curvature="0"
           id="path4456"
           d="m 826.79058,10.741717 0,83.382801 -10.64258,0 c -0.005,0 -0.009,0 -0.0137,0 -2.93689,0 -5.30078,2.363881 -5.30078,5.300781 l 0,112.236311 c 0,2.9369 2.36389,5.30078 5.30078,5.30078 l 0.0137,0 10.64258,0 0,83.38281 0,0.002 0.002,0 c 37.65705,-16.70757 59.61865,-16.47771 97.75005,0 l 0,-0.002 0,-83.38281 10.6426,0 c 0,0 0.01,0 0.014,0 2.9369,0 5.3007,-2.36388 5.3007,-5.30078 l 0,-112.236311 c 0,-2.9369 -2.3638,-5.300781 -5.3007,-5.300781 l -0.014,0 -10.6426,0 0,-83.382801 c -37.6573,16.70821 -59.6182,16.47655 -97.75005,0 l -0.002,0 z"
           style="fill:none;fill-opacity:1;stroke:#ff0000;stroke-width:0.07086614;stroke-miterlimit:4;stroke-dasharray:none;stroke-opacity:1" />
      </g>
    </g>
  </g>
</svg>
