M48
;DRILL file {KiCad 4.0.6} date Sunday, July 01, 2018 'PMt' 10:15:44 PM
;FORMAT={-:-/ absolute / metric / decimal}
FMAT,2
METRIC,TZ
T1C0.400
T2C0.813
T3C1.000
T4C1.001
T5C1.016
T6C1.200
T7C1.499
T8C2.200
T9C2.300
T10C3.200
%
G90
G05
M71
T1
X57.75Y-197.75
X58.79Y-139.45
X59.12Y-174.63
X60.12Y-173.7
X60.75Y-197.5
X60.91Y-177.7
X60.95Y-137.95
X61.21Y-67.06
X61.97Y-196.71
X62.22Y-177.81
X62.6Y-171.4
X63.09Y-140.15
X63.14Y-200.84
X63.95Y-138.15
X64.25Y-122.25
X65.32Y-196.86
X68.63Y-72.81
X68.95Y-100.55
X70.35Y-99.52
X70.69Y-68.9
X71.15Y-101.95
X71.95Y-196.55
X71.95Y-200.75
X72.35Y-114.15
X72.9Y-45.47
X73.15Y-115.75
X73.28Y-42.16
X74.18Y-197.34
X74.77Y-134.06
X74.94Y-131.32
X75.02Y-105.59
X75.02Y-114.22
X75.21Y-111.98
X75.75Y-197.2
X77.67Y-92.26
X79.94Y-196.75
X85.5Y-112.25
X85.73Y-70.22
X85.88Y-68.08
X87.Y-127.5
X87.25Y-49.5
X89.35Y-125.75
X90.75Y-80.
X91.Y-47.25
X91.25Y-70.25
X91.66Y-120.82
X92.Y-79.75
X93.75Y-47.55
X94.05Y-139.85
X94.05Y-143.25
X94.5Y-124.82
X95.03Y-131.84
X96.37Y-151.66
X96.37Y-155.31
X96.75Y-48.15
X98.Y-152.5
X98.Y-154.5
X103.25Y-82.85
X103.95Y-85.35
X104.15Y-86.95
X104.24Y-161.58
X104.25Y-136.
X104.25Y-140.5
X104.25Y-144.5
X104.55Y-159.68
X105.55Y-196.55
X105.55Y-200.95
X106.Y-88.
X106.Y-89.75
X106.25Y-54.75
X106.25Y-144.25
X106.45Y-92.55
X106.5Y-58.25
X106.57Y-158.95
X107.02Y-161.96
X112.5Y-134.5
X114.Y-135.5
X114.11Y-155.74
X114.44Y-140.54
X114.55Y-51.35
X114.55Y-52.75
X114.72Y-142.66
X115.06Y-151.88
X115.35Y-56.65
X115.82Y-156.1
X116.09Y-152.51
X116.24Y-131.98
X116.97Y-136.09
X117.31Y-134.
X117.5Y-154.75
X119.Y-121.
X119.15Y-83.55
X119.5Y-156.5
X120.5Y-120.75
X120.5Y-154.
X120.55Y-100.95
X120.75Y-29.25
X120.95Y-56.65
X121.35Y-117.97
X121.75Y-154.
X122.54Y-128.97
X123.Y-29.25
X123.5Y-77.25
X124.25Y-55.75
X124.55Y-49.15
X126.25Y-55.75
X127.25Y-77.25
X130.55Y-101.75
X133.16Y-195.79
X135.23Y-195.97
X135.57Y-119.84
X135.75Y-130.75
X135.75Y-132.5
X136.55Y-130.95
X136.55Y-132.55
X137.3Y-130.31
X137.35Y-122.15
X137.46Y-132.94
X141.2Y-168.6
X143.75Y-55.45
X143.75Y-103.25
X143.78Y-202.19
X144.06Y-141.15
X144.28Y-197.27
X146.01Y-141.77
X146.13Y-201.96
X147.19Y-177.92
X147.19Y-197.15
X147.24Y-172.89
X148.47Y-177.7
X149.76Y-174.23
X150.15Y-138.36
X153.05Y-27.75
X153.45Y-139.05
X153.85Y-26.65
X154.3Y-128.2
X154.45Y-34.25
T2
X75.24Y-165.86
X75.24Y-168.4
X75.24Y-170.94
X75.24Y-173.48
X75.24Y-176.02
X75.24Y-178.56
X75.24Y-181.1
X75.24Y-183.64
X83.26Y-165.86
X83.26Y-168.4
X83.26Y-170.94
X83.26Y-173.48
X83.26Y-176.02
X83.26Y-178.56
X83.26Y-181.1
X83.26Y-183.64
X97.48Y-60.83
X97.48Y-63.37
X97.48Y-65.91
X97.48Y-68.45
X97.48Y-70.99
X97.48Y-73.53
X97.48Y-76.07
X97.48Y-78.61
X97.48Y-81.15
X97.48Y-83.69
X97.48Y-86.23
X97.48Y-88.77
X97.48Y-92.83
X97.48Y-95.37
X97.48Y-97.91
X97.48Y-100.45
X97.48Y-102.99
X97.48Y-105.53
X97.48Y-108.07
X97.48Y-110.61
X97.48Y-113.15
X97.48Y-115.69
X97.48Y-118.23
X97.48Y-120.77
X101.24Y-124.11
X101.24Y-126.65
X101.24Y-129.19
X101.24Y-131.73
X101.24Y-134.27
X101.24Y-136.81
X101.24Y-139.35
X101.24Y-141.89
X109.26Y-124.11
X109.26Y-126.65
X109.26Y-129.19
X109.26Y-131.73
X109.26Y-134.27
X109.26Y-136.81
X109.26Y-139.35
X109.26Y-141.89
X112.92Y-60.83
X112.92Y-63.37
X112.92Y-65.91
X112.92Y-68.45
X112.92Y-70.99
X112.92Y-73.53
X112.92Y-76.07
X112.92Y-78.61
X112.92Y-81.15
X112.92Y-83.69
X112.92Y-86.23
X112.92Y-88.77
X112.92Y-92.83
X112.92Y-95.37
X112.92Y-97.91
X112.92Y-100.45
X112.92Y-102.99
X112.92Y-105.53
X112.92Y-108.07
X112.92Y-110.61
X112.92Y-113.15
X112.92Y-115.69
X112.92Y-118.23
X112.92Y-120.77
X127.74Y-165.86
X127.74Y-168.4
X127.74Y-170.94
X127.74Y-173.48
X127.74Y-176.02
X127.74Y-178.56
X127.74Y-181.1
X127.74Y-183.64
X135.76Y-165.86
X135.76Y-168.4
X135.76Y-170.94
X135.76Y-173.48
X135.76Y-176.02
X135.76Y-178.56
X135.76Y-181.1
X135.76Y-183.64
T3
X63.9Y-127.25
X63.9Y-131.25
X64.Y-209.5
X66.54Y-209.5
X68.Y-204.
X69.08Y-209.5
X70.1Y-127.25
X70.1Y-131.25
X70.54Y-204.
X71.62Y-209.5
X73.08Y-204.
X74.16Y-209.5
X75.62Y-204.
X76.7Y-209.5
X78.16Y-204.
X79.24Y-209.5
X82.65Y-65.
X82.65Y-69.
X82.65Y-87.75
X82.65Y-91.75
X82.65Y-111.75
X82.65Y-115.75
X82.65Y-136.75
X82.65Y-140.75
X86.55Y-38.75
X86.55Y-42.75
X88.85Y-65.
X88.85Y-69.
X88.85Y-87.75
X88.85Y-91.75
X88.85Y-111.75
X88.85Y-115.75
X88.85Y-136.75
X88.85Y-140.75
X92.75Y-38.75
X92.75Y-42.75
X102.05Y-50.
X102.05Y-54.
X102.65Y-27.25
X102.65Y-41.75
X105.15Y-41.75
X107.65Y-27.25
X107.65Y-41.75
X108.25Y-50.
X108.25Y-54.
X117.7Y-38.75
X117.7Y-42.75
X121.65Y-87.75
X121.65Y-91.75
X121.65Y-111.75
X121.65Y-115.75
X121.65Y-136.75
X121.65Y-140.75
X121.85Y-65.
X121.85Y-69.
X123.9Y-38.75
X123.9Y-42.75
X127.85Y-87.75
X127.85Y-91.75
X127.85Y-111.75
X127.85Y-115.75
X127.85Y-136.75
X127.85Y-140.75
X128.05Y-65.
X128.05Y-69.
X133.Y-209.5
X135.54Y-209.5
X138.08Y-209.5
X140.55Y-127.2
X140.55Y-131.2
X140.62Y-209.5
X143.16Y-209.5
X145.7Y-209.5
X146.75Y-127.2
X146.75Y-131.2
T4
X60.Y-127.25
X60.Y-134.87
X65.71Y-136.25
X68.25Y-136.25
X80.75Y-73.63
X80.75Y-81.25
X80.75Y-97.13
X80.75Y-104.75
X80.75Y-121.13
X80.75Y-128.75
X80.75Y-146.13
X80.75Y-153.75
X84.46Y-122.
X84.51Y-146.6
X84.71Y-74.75
X84.71Y-98.75
X87.Y-122.
X87.05Y-146.6
X87.25Y-74.75
X87.25Y-98.75
X88.13Y-160.75
X88.13Y-165.75
X88.13Y-170.75
X88.13Y-175.75
X88.13Y-180.75
X88.13Y-185.75
X88.13Y-190.75
X95.75Y-160.75
X95.75Y-165.75
X95.75Y-170.75
X95.75Y-175.75
X95.75Y-180.75
X95.75Y-185.75
X95.75Y-190.75
X99.21Y-160.75
X99.21Y-165.75
X99.21Y-170.75
X99.21Y-175.75
X99.21Y-180.75
X99.21Y-185.75
X99.21Y-190.75
X99.9Y0.12
X99.9Y-7.5
X101.75Y-160.75
X101.75Y-165.75
X101.75Y-170.75
X101.75Y-175.75
X101.75Y-180.75
X101.75Y-185.75
X101.75Y-190.75
X103.86Y-2.25
X106.4Y-2.25
X109.25Y-160.75
X109.25Y-165.75
X109.25Y-170.75
X109.25Y-175.75
X109.25Y-180.75
X109.25Y-185.75
X109.25Y-190.75
X111.79Y-160.75
X111.79Y-165.75
X111.79Y-170.75
X111.79Y-175.75
X111.79Y-180.75
X111.79Y-185.75
X111.79Y-190.75
X115.25Y-160.75
X115.25Y-165.75
X115.25Y-170.75
X115.25Y-175.75
X115.25Y-180.75
X115.25Y-185.75
X115.25Y-190.75
X122.87Y-160.75
X122.87Y-165.75
X122.87Y-170.75
X122.87Y-175.75
X122.87Y-180.75
X122.87Y-185.75
X122.87Y-190.75
X123.1Y-74.5
X123.1Y-98.
X123.1Y-121.9
X123.1Y-146.5
X125.64Y-74.5
X125.64Y-98.
X125.64Y-121.9
X125.64Y-146.5
X129.95Y-73.63
X129.95Y-81.25
X129.95Y-97.13
X129.95Y-104.75
X129.95Y-121.13
X129.95Y-128.75
X129.95Y-146.13
X129.95Y-153.75
X142.5Y-136.1
X145.04Y-136.1
X149.75Y-127.25
X149.75Y-134.87
T5
X80.89Y-28.52
X80.89Y-31.06
X80.89Y-33.6
X80.89Y-36.14
X80.89Y-38.68
X80.89Y-41.22
X80.89Y-46.3
X80.89Y-48.84
X80.89Y-51.38
X80.89Y-53.92
X80.89Y-56.46
X80.89Y-59.
X129.15Y-19.376
X129.15Y-21.916
X129.15Y-24.456
X129.15Y-26.996
X129.15Y-29.536
X129.15Y-32.076
X129.15Y-34.616
X129.15Y-37.156
X129.15Y-41.22
X129.15Y-43.76
X129.15Y-46.3
X129.15Y-48.84
X129.15Y-51.38
X129.15Y-53.92
X129.15Y-56.46
X129.15Y-59.
T6
X64.25Y-12.75
X64.25Y-38.75
X64.25Y-64.75
X64.25Y-90.75
X64.25Y-116.75
X66.75Y-12.75
X66.75Y-38.75
X66.75Y-64.75
X66.75Y-90.75
X66.75Y-116.75
X69.25Y-12.75
X69.25Y-38.75
X69.25Y-64.75
X69.25Y-90.75
X69.25Y-116.75
X103.Y-156.5
X105.5Y-156.5
X108.Y-156.5
X141.25Y-12.75
X141.25Y-38.75
X141.25Y-64.75
X141.25Y-90.75
X141.25Y-116.75
X143.75Y-12.75
X143.75Y-38.75
X143.75Y-64.75
X143.75Y-90.75
X143.75Y-116.75
X146.25Y-12.75
X146.25Y-38.75
X146.25Y-64.75
X146.25Y-90.75
X146.25Y-116.75
T7
X64.001Y-189.747
X67.999Y-146.253
X67.999Y-189.747
X83.253Y-203.001
X83.253Y-206.999
X126.747Y-206.999
X141.001Y-189.747
X144.999Y-146.253
X144.999Y-189.747
T8
X61.5Y-5.75
X61.5Y-31.75
X61.5Y-57.75
X61.5Y-83.75
X61.5Y-109.75
X72.Y-5.75
X72.Y-31.75
X72.Y-57.75
X72.Y-83.75
X72.Y-109.75
X100.25Y-149.5
X110.75Y-34.25
X110.75Y-149.5
X138.5Y-5.75
X138.5Y-31.75
X138.5Y-57.75
X138.5Y-83.75
X138.5Y-109.75
X149.Y-5.75
X149.Y-31.75
X149.Y-57.75
X149.Y-83.75
X149.Y-109.75
T9
X99.55Y-34.25
T10
X58.4Y1.8
X58.4Y-99.7
X58.4Y-209.2
X150.6Y-99.7
X151.6Y1.8
X151.6Y-209.2
T0
M30
