G04 #@! TF.FileFunction,Soldermask,Bot*
%FSLAX46Y46*%
G04 Gerber Fmt 4.6, Leading zero omitted, Abs format (unit mm)*
G04 Created by KiCad (PCBNEW 4.0.6) date Sunday, September 10, 2017 'PMt' 10:34:40 PM*
%MOMM*%
%LPD*%
G01*
G04 APERTURE LIST*
%ADD10C,0.100000*%
%ADD11C,4.464000*%
%ADD12C,2.200000*%
%ADD13C,3.400000*%
%ADD14C,2.900000*%
%ADD15C,2.100000*%
%ADD16R,2.400000X2.400000*%
%ADD17C,2.400000*%
%ADD18C,2.398980*%
%ADD19O,2.940000X1.924000*%
%ADD20C,1.720800*%
%ADD21C,1.924000*%
%ADD22O,3.041600X1.720800*%
G04 APERTURE END LIST*
D10*
D11*
X58400000Y-99700000D03*
X150600000Y-99700000D03*
X58400000Y-209200000D03*
X151600000Y-209200000D03*
X151600000Y1800000D03*
D12*
X102650000Y-27250000D03*
X102650000Y-41750000D03*
X105150000Y-41750000D03*
X107650000Y-41750000D03*
X107650000Y-27250000D03*
D13*
X110750000Y-34250000D03*
X99550000Y-34250000D03*
D14*
X149000000Y-57750000D03*
D15*
X143750000Y-64750000D03*
X146250000Y-64750000D03*
X141250000Y-64750000D03*
D14*
X138500000Y-57750000D03*
D15*
X70000000Y-131250000D03*
X64000000Y-131250000D03*
X70000000Y-127250000D03*
X64000000Y-127250000D03*
X88750000Y-140750000D03*
X82750000Y-140750000D03*
X88750000Y-136750000D03*
X82750000Y-136750000D03*
X88750000Y-115750000D03*
X82750000Y-115750000D03*
X88750000Y-111750000D03*
X82750000Y-111750000D03*
X88750000Y-91750000D03*
X82750000Y-91750000D03*
X88750000Y-87750000D03*
X82750000Y-87750000D03*
X88750000Y-69000000D03*
X82750000Y-69000000D03*
X88750000Y-65000000D03*
X82750000Y-65000000D03*
X92650000Y-42750000D03*
X86650000Y-42750000D03*
X92650000Y-38750000D03*
X86650000Y-38750000D03*
X146650000Y-131200000D03*
X140650000Y-131200000D03*
X146650000Y-127200000D03*
X140650000Y-127200000D03*
X127750000Y-140750000D03*
X121750000Y-140750000D03*
X127750000Y-136750000D03*
X121750000Y-136750000D03*
X127750000Y-115750000D03*
X121750000Y-115750000D03*
X127750000Y-111750000D03*
X121750000Y-111750000D03*
X127750000Y-91750000D03*
X121750000Y-91750000D03*
X127750000Y-87750000D03*
X121750000Y-87750000D03*
X127950000Y-69000000D03*
X121950000Y-69000000D03*
X127950000Y-65000000D03*
X121950000Y-65000000D03*
X123800000Y-42750000D03*
X117800000Y-42750000D03*
X123800000Y-38750000D03*
X117800000Y-38750000D03*
X108150000Y-54000000D03*
X102150000Y-54000000D03*
X108150000Y-50000000D03*
X102150000Y-50000000D03*
D16*
X68250000Y-136250000D03*
D17*
X65710000Y-136250000D03*
D16*
X87050000Y-146600000D03*
D17*
X84510000Y-146600000D03*
D16*
X87000000Y-122000000D03*
D17*
X84460000Y-122000000D03*
D16*
X87250000Y-98750000D03*
D17*
X84710000Y-98750000D03*
D16*
X87250000Y-74750000D03*
D17*
X84710000Y-74750000D03*
D16*
X106400000Y-2250000D03*
D17*
X103860000Y-2250000D03*
D16*
X142500000Y-136100000D03*
D17*
X145040000Y-136100000D03*
D16*
X123100000Y-146500000D03*
D17*
X125640000Y-146500000D03*
D16*
X123100000Y-121900000D03*
D17*
X125640000Y-121900000D03*
D16*
X123100000Y-98000000D03*
D17*
X125640000Y-98000000D03*
D16*
X123100000Y-74500000D03*
D17*
X125640000Y-74500000D03*
D14*
X72000000Y-109750000D03*
D15*
X66750000Y-116750000D03*
X69250000Y-116750000D03*
X64250000Y-116750000D03*
D14*
X61500000Y-109750000D03*
X72000000Y-83750000D03*
D15*
X66750000Y-90750000D03*
X69250000Y-90750000D03*
X64250000Y-90750000D03*
D14*
X61500000Y-83750000D03*
X72000000Y-57750000D03*
D15*
X66750000Y-64750000D03*
X69250000Y-64750000D03*
X64250000Y-64750000D03*
D14*
X61500000Y-57750000D03*
X72000000Y-31750000D03*
D15*
X66750000Y-38750000D03*
X69250000Y-38750000D03*
X64250000Y-38750000D03*
D14*
X61500000Y-31750000D03*
X72000000Y-5750000D03*
D15*
X66750000Y-12750000D03*
X69250000Y-12750000D03*
X64250000Y-12750000D03*
D14*
X61500000Y-5750000D03*
X110750000Y-149500000D03*
D15*
X105500000Y-156500000D03*
X108000000Y-156500000D03*
X103000000Y-156500000D03*
D14*
X100250000Y-149500000D03*
X149000000Y-109750000D03*
D15*
X143750000Y-116750000D03*
X146250000Y-116750000D03*
X141250000Y-116750000D03*
D14*
X138500000Y-109750000D03*
X149000000Y-83750000D03*
D15*
X143750000Y-90750000D03*
X146250000Y-90750000D03*
X141250000Y-90750000D03*
D14*
X138500000Y-83750000D03*
X149000000Y-31750000D03*
D15*
X143750000Y-38750000D03*
X146250000Y-38750000D03*
X141250000Y-38750000D03*
D14*
X138500000Y-31750000D03*
X149000000Y-5750000D03*
D15*
X143750000Y-12750000D03*
X146250000Y-12750000D03*
X141250000Y-12750000D03*
D14*
X138500000Y-5750000D03*
D18*
X60000000Y-127250000D03*
X60000000Y-134870000D03*
X80750000Y-153750000D03*
X80750000Y-146130000D03*
X80750000Y-128750000D03*
X80750000Y-121130000D03*
X80750000Y-104750000D03*
X80750000Y-97130000D03*
X80750000Y-81250000D03*
X80750000Y-73630000D03*
X99900000Y-7500000D03*
X99900000Y120000D03*
X149750000Y-127250000D03*
X149750000Y-134870000D03*
X129950000Y-153750000D03*
X129950000Y-146130000D03*
X129950000Y-128750000D03*
X129950000Y-121130000D03*
X129950000Y-104750000D03*
X129950000Y-97130000D03*
X129950000Y-81250000D03*
X129950000Y-73630000D03*
X95750000Y-190750000D03*
X88130000Y-190750000D03*
X95750000Y-185750000D03*
X88130000Y-185750000D03*
X95750000Y-180750000D03*
X88130000Y-180750000D03*
X95750000Y-175750000D03*
X88130000Y-175750000D03*
X95750000Y-170750000D03*
X88130000Y-170750000D03*
X95750000Y-165750000D03*
X88130000Y-165750000D03*
X95750000Y-160750000D03*
X88130000Y-160750000D03*
X115250000Y-190750000D03*
X122870000Y-190750000D03*
X115250000Y-185750000D03*
X122870000Y-185750000D03*
X115250000Y-180750000D03*
X122870000Y-180750000D03*
X115250000Y-175750000D03*
X122870000Y-175750000D03*
X115250000Y-170750000D03*
X122870000Y-170750000D03*
X115250000Y-165750000D03*
X122870000Y-165750000D03*
X115250000Y-160750000D03*
X122870000Y-160750000D03*
D19*
X80890000Y-59000000D03*
X80890000Y-56460000D03*
X80890000Y-53920000D03*
X80890000Y-46300000D03*
X80890000Y-48840000D03*
X80890000Y-51380000D03*
X80890000Y-41220000D03*
X80890000Y-38680000D03*
X80890000Y-36140000D03*
X80890000Y-31060000D03*
X80890000Y-28520000D03*
X129150000Y-59000000D03*
X129150000Y-56460000D03*
X129150000Y-53920000D03*
X129150000Y-51380000D03*
X129150000Y-48840000D03*
X129150000Y-46300000D03*
X129150000Y-43760000D03*
X129150000Y-41220000D03*
X129150000Y-37156000D03*
X129150000Y-34616000D03*
X129150000Y-32076000D03*
X129150000Y-29536000D03*
X129150000Y-26996000D03*
X129150000Y-24456000D03*
X129150000Y-21916000D03*
X129150000Y-19376000D03*
X80890000Y-33600000D03*
D16*
X101750000Y-190750000D03*
D17*
X99210000Y-190750000D03*
D16*
X101750000Y-185750000D03*
D17*
X99210000Y-185750000D03*
D16*
X101750000Y-180750000D03*
D17*
X99210000Y-180750000D03*
D16*
X101750000Y-175750000D03*
D17*
X99210000Y-175750000D03*
D16*
X101750000Y-170750000D03*
D17*
X99210000Y-170750000D03*
D16*
X101750000Y-165750000D03*
D17*
X99210000Y-165750000D03*
D16*
X101750000Y-160750000D03*
D17*
X99210000Y-160750000D03*
D16*
X109250000Y-190750000D03*
D17*
X111790000Y-190750000D03*
D16*
X109250000Y-185750000D03*
D17*
X111790000Y-185750000D03*
D16*
X109250000Y-180750000D03*
D17*
X111790000Y-180750000D03*
D16*
X109250000Y-175750000D03*
D17*
X111790000Y-175750000D03*
D16*
X109250000Y-170750000D03*
D17*
X111790000Y-170750000D03*
D16*
X109250000Y-165750000D03*
D17*
X111790000Y-165750000D03*
D16*
X109250000Y-160750000D03*
D17*
X111790000Y-160750000D03*
D20*
X101440000Y-124110000D03*
X101440000Y-126650000D03*
X101440000Y-129190000D03*
X101440000Y-131730000D03*
X101440000Y-134270000D03*
X101440000Y-136810000D03*
X101440000Y-139350000D03*
X101440000Y-141890000D03*
X109060000Y-141890000D03*
X109060000Y-139350000D03*
X109060000Y-136810000D03*
X109060000Y-134270000D03*
X109060000Y-131730000D03*
X109060000Y-129190000D03*
X109060000Y-126650000D03*
X109060000Y-124110000D03*
X83060000Y-183640000D03*
X83060000Y-181100000D03*
X83060000Y-178560000D03*
X83060000Y-176020000D03*
X83060000Y-173480000D03*
X83060000Y-170940000D03*
X83060000Y-168400000D03*
X83060000Y-165860000D03*
X75440000Y-165860000D03*
X75440000Y-168400000D03*
X75440000Y-170940000D03*
X75440000Y-173480000D03*
X75440000Y-176020000D03*
X75440000Y-178560000D03*
X75440000Y-181100000D03*
X75440000Y-183640000D03*
X127940000Y-165860000D03*
X127940000Y-168400000D03*
X127940000Y-170940000D03*
X127940000Y-173480000D03*
X127940000Y-176020000D03*
X127940000Y-178560000D03*
X127940000Y-181100000D03*
X127940000Y-183640000D03*
X135560000Y-183640000D03*
X135560000Y-181100000D03*
X135560000Y-178560000D03*
X135560000Y-176020000D03*
X135560000Y-173480000D03*
X135560000Y-170940000D03*
X135560000Y-168400000D03*
X135560000Y-165860000D03*
D11*
X58400000Y1800000D03*
D21*
X139750000Y-190250000D03*
X145250000Y-190250000D03*
X145250000Y-146750000D03*
D12*
X63250000Y-190250000D03*
X68750000Y-190250000D03*
X68750000Y-146750000D03*
X83500000Y-202750000D03*
X83500000Y-208250000D03*
X127000000Y-208250000D03*
D22*
X97580000Y-92830000D03*
X97580000Y-95370000D03*
X97580000Y-97910000D03*
X97580000Y-100450000D03*
X97580000Y-102990000D03*
X97580000Y-105530000D03*
X97580000Y-108070000D03*
X97580000Y-110610000D03*
X97580000Y-113150000D03*
X97580000Y-115690000D03*
X97580000Y-118230000D03*
X97580000Y-120770000D03*
X112820000Y-120770000D03*
X112820000Y-118230000D03*
X112820000Y-115690000D03*
X112820000Y-113150000D03*
X112820000Y-110610000D03*
X112820000Y-108070000D03*
X112820000Y-105530000D03*
X112820000Y-102990000D03*
X112820000Y-100450000D03*
X112820000Y-97910000D03*
X112820000Y-95370000D03*
X112820000Y-92830000D03*
X97580000Y-60830000D03*
X97580000Y-63370000D03*
X97580000Y-65910000D03*
X97580000Y-68450000D03*
X97580000Y-70990000D03*
X97580000Y-73530000D03*
X97580000Y-76070000D03*
X97580000Y-78610000D03*
X97580000Y-81150000D03*
X97580000Y-83690000D03*
X97580000Y-86230000D03*
X97580000Y-88770000D03*
X112820000Y-88770000D03*
X112820000Y-86230000D03*
X112820000Y-83690000D03*
X112820000Y-81150000D03*
X112820000Y-78610000D03*
X112820000Y-76070000D03*
X112820000Y-73530000D03*
X112820000Y-70990000D03*
X112820000Y-68450000D03*
X112820000Y-65910000D03*
X112820000Y-63370000D03*
X112820000Y-60830000D03*
M02*
