G04 #@! TF.FileFunction,Soldermask,Bot*
%FSLAX46Y46*%
G04 Gerber Fmt 4.6, Leading zero omitted, Abs format (unit mm)*
G04 Created by KiCad (PCBNEW 4.0.6) date Sunday, July 01, 2018 'PMt' 10:15:41 PM*
%MOMM*%
%LPD*%
G01*
G04 APERTURE LIST*
%ADD10C,0.100000*%
%ADD11C,2.398980*%
%ADD12C,3.600000*%
%ADD13C,4.464000*%
%ADD14R,2.400000X2.400000*%
%ADD15C,2.400000*%
%ADD16O,2.940000X1.924000*%
%ADD17C,2.647900*%
%ADD18O,3.041600X1.720800*%
%ADD19C,3.400000*%
%ADD20R,2.100000X2.100000*%
%ADD21O,2.100000X2.100000*%
G04 APERTURE END LIST*
D10*
D11*
X128050000Y-69000000D03*
X121850000Y-69000000D03*
X128050000Y-65000000D03*
X121850000Y-65000000D03*
X127850000Y-115750000D03*
X121650000Y-115750000D03*
X127850000Y-111750000D03*
X121650000Y-111750000D03*
D12*
X149000000Y-5750000D03*
D11*
X143750000Y-12750000D03*
X146250000Y-12750000D03*
X141250000Y-12750000D03*
D12*
X138500000Y-5750000D03*
D11*
X101240000Y-124110000D03*
X101240000Y-126650000D03*
X101240000Y-129190000D03*
X101240000Y-131730000D03*
X101240000Y-134270000D03*
X101240000Y-136810000D03*
X101240000Y-139350000D03*
X101240000Y-141890000D03*
X109260000Y-141890000D03*
X109260000Y-139350000D03*
X109260000Y-136810000D03*
X109260000Y-134270000D03*
X109260000Y-131730000D03*
X109260000Y-129190000D03*
X109260000Y-126650000D03*
X109260000Y-124110000D03*
D13*
X58400000Y-99700000D03*
X150600000Y-99700000D03*
X58400000Y-209200000D03*
X151600000Y-209200000D03*
X151600000Y1800000D03*
D14*
X68250000Y-136250000D03*
D15*
X65710000Y-136250000D03*
D14*
X87050000Y-146600000D03*
D15*
X84510000Y-146600000D03*
D14*
X87000000Y-122000000D03*
D15*
X84460000Y-122000000D03*
D14*
X87250000Y-98750000D03*
D15*
X84710000Y-98750000D03*
D14*
X87250000Y-74750000D03*
D15*
X84710000Y-74750000D03*
D14*
X106400000Y-2250000D03*
D15*
X103860000Y-2250000D03*
D14*
X142500000Y-136100000D03*
D15*
X145040000Y-136100000D03*
D14*
X123100000Y-146500000D03*
D15*
X125640000Y-146500000D03*
D14*
X123100000Y-121900000D03*
D15*
X125640000Y-121900000D03*
D14*
X123100000Y-98000000D03*
D15*
X125640000Y-98000000D03*
D14*
X123100000Y-74500000D03*
D15*
X125640000Y-74500000D03*
D11*
X60000000Y-127250000D03*
X60000000Y-134870000D03*
X80750000Y-153750000D03*
X80750000Y-146130000D03*
X80750000Y-128750000D03*
X80750000Y-121130000D03*
X80750000Y-104750000D03*
X80750000Y-97130000D03*
X80750000Y-81250000D03*
X80750000Y-73630000D03*
X99900000Y-7500000D03*
X99900000Y120000D03*
X149750000Y-127250000D03*
X149750000Y-134870000D03*
X129950000Y-153750000D03*
X129950000Y-146130000D03*
X129950000Y-128750000D03*
X129950000Y-121130000D03*
X129950000Y-104750000D03*
X129950000Y-97130000D03*
X129950000Y-81250000D03*
X129950000Y-73630000D03*
X95750000Y-190750000D03*
X88130000Y-190750000D03*
X95750000Y-185750000D03*
X88130000Y-185750000D03*
X95750000Y-180750000D03*
X88130000Y-180750000D03*
X95750000Y-175750000D03*
X88130000Y-175750000D03*
X95750000Y-170750000D03*
X88130000Y-170750000D03*
X95750000Y-165750000D03*
X88130000Y-165750000D03*
X95750000Y-160750000D03*
X88130000Y-160750000D03*
X115250000Y-190750000D03*
X122870000Y-190750000D03*
X115250000Y-185750000D03*
X122870000Y-185750000D03*
X115250000Y-180750000D03*
X122870000Y-180750000D03*
X115250000Y-175750000D03*
X122870000Y-175750000D03*
X115250000Y-170750000D03*
X122870000Y-170750000D03*
X115250000Y-165750000D03*
X122870000Y-165750000D03*
X115250000Y-160750000D03*
X122870000Y-160750000D03*
D16*
X80890000Y-59000000D03*
X80890000Y-56460000D03*
X80890000Y-53920000D03*
X80890000Y-46300000D03*
X80890000Y-48840000D03*
X80890000Y-51380000D03*
X80890000Y-41220000D03*
X80890000Y-38680000D03*
X80890000Y-36140000D03*
X80890000Y-31060000D03*
X80890000Y-28520000D03*
X129150000Y-59000000D03*
X129150000Y-56460000D03*
X129150000Y-53920000D03*
X129150000Y-51380000D03*
X129150000Y-48840000D03*
X129150000Y-46300000D03*
X129150000Y-43760000D03*
X129150000Y-41220000D03*
X129150000Y-37156000D03*
X129150000Y-34616000D03*
X129150000Y-32076000D03*
X129150000Y-29536000D03*
X129150000Y-26996000D03*
X129150000Y-24456000D03*
X129150000Y-21916000D03*
X129150000Y-19376000D03*
X80890000Y-33600000D03*
D14*
X101750000Y-190750000D03*
D15*
X99210000Y-190750000D03*
D14*
X101750000Y-185750000D03*
D15*
X99210000Y-185750000D03*
D14*
X101750000Y-180750000D03*
D15*
X99210000Y-180750000D03*
D14*
X101750000Y-175750000D03*
D15*
X99210000Y-175750000D03*
D14*
X101750000Y-170750000D03*
D15*
X99210000Y-170750000D03*
D14*
X101750000Y-165750000D03*
D15*
X99210000Y-165750000D03*
D14*
X101750000Y-160750000D03*
D15*
X99210000Y-160750000D03*
D14*
X109250000Y-190750000D03*
D15*
X111790000Y-190750000D03*
D14*
X109250000Y-185750000D03*
D15*
X111790000Y-185750000D03*
D14*
X109250000Y-180750000D03*
D15*
X111790000Y-180750000D03*
D14*
X109250000Y-175750000D03*
D15*
X111790000Y-175750000D03*
D14*
X109250000Y-170750000D03*
D15*
X111790000Y-170750000D03*
D14*
X109250000Y-165750000D03*
D15*
X111790000Y-165750000D03*
D14*
X109250000Y-160750000D03*
D15*
X111790000Y-160750000D03*
D13*
X58400000Y1800000D03*
D17*
X144998980Y-146252520D03*
X144998980Y-189747480D03*
X141001020Y-189747480D03*
X126747480Y-206998980D03*
X83252520Y-206998980D03*
X83252520Y-203001020D03*
X67998980Y-146252520D03*
X67998980Y-189747480D03*
X64001020Y-189747480D03*
D11*
X127740000Y-165860000D03*
X127740000Y-168400000D03*
X127740000Y-170940000D03*
X127740000Y-173480000D03*
X127740000Y-176020000D03*
X127740000Y-178560000D03*
X127740000Y-181100000D03*
X127740000Y-183640000D03*
X135760000Y-183640000D03*
X135760000Y-181100000D03*
X135760000Y-178560000D03*
X135760000Y-176020000D03*
X135760000Y-173480000D03*
X135760000Y-170940000D03*
X135760000Y-168400000D03*
X135760000Y-165860000D03*
X83260000Y-183640000D03*
X83260000Y-181100000D03*
X83260000Y-178560000D03*
X83260000Y-176020000D03*
X83260000Y-173480000D03*
X83260000Y-170940000D03*
X83260000Y-168400000D03*
X83260000Y-165860000D03*
X75240000Y-165860000D03*
X75240000Y-168400000D03*
X75240000Y-170940000D03*
X75240000Y-173480000D03*
X75240000Y-176020000D03*
X75240000Y-178560000D03*
X75240000Y-181100000D03*
X75240000Y-183640000D03*
D18*
X97480000Y-92830000D03*
X97480000Y-95370000D03*
X97480000Y-97910000D03*
X97480000Y-100450000D03*
X97480000Y-102990000D03*
X97480000Y-105530000D03*
X97480000Y-108070000D03*
X97480000Y-110610000D03*
X97480000Y-113150000D03*
X97480000Y-115690000D03*
X97480000Y-118230000D03*
X97480000Y-120770000D03*
X112920000Y-120770000D03*
X112920000Y-118230000D03*
X112920000Y-115690000D03*
X112920000Y-113150000D03*
X112920000Y-110610000D03*
X112920000Y-108070000D03*
X112920000Y-105530000D03*
X112920000Y-102990000D03*
X112920000Y-100450000D03*
X112920000Y-97910000D03*
X112920000Y-95370000D03*
X112920000Y-92830000D03*
X97480000Y-60830000D03*
X97480000Y-63370000D03*
X97480000Y-65910000D03*
X97480000Y-68450000D03*
X97480000Y-70990000D03*
X97480000Y-73530000D03*
X97480000Y-76070000D03*
X97480000Y-78610000D03*
X97480000Y-81150000D03*
X97480000Y-83690000D03*
X97480000Y-86230000D03*
X97480000Y-88770000D03*
X112920000Y-88770000D03*
X112920000Y-86230000D03*
X112920000Y-83690000D03*
X112920000Y-81150000D03*
X112920000Y-78610000D03*
X112920000Y-76070000D03*
X112920000Y-73530000D03*
X112920000Y-70990000D03*
X112920000Y-68450000D03*
X112920000Y-65910000D03*
X112920000Y-63370000D03*
X112920000Y-60830000D03*
D12*
X72000000Y-5750000D03*
D11*
X66750000Y-12750000D03*
X69250000Y-12750000D03*
X64250000Y-12750000D03*
D12*
X61500000Y-5750000D03*
X72000000Y-31750000D03*
D11*
X66750000Y-38750000D03*
X69250000Y-38750000D03*
X64250000Y-38750000D03*
D12*
X61500000Y-31750000D03*
X72000000Y-57750000D03*
D11*
X66750000Y-64750000D03*
X69250000Y-64750000D03*
X64250000Y-64750000D03*
D12*
X61500000Y-57750000D03*
X72000000Y-83750000D03*
D11*
X66750000Y-90750000D03*
X69250000Y-90750000D03*
X64250000Y-90750000D03*
D12*
X61500000Y-83750000D03*
X72000000Y-109750000D03*
D11*
X66750000Y-116750000D03*
X69250000Y-116750000D03*
X64250000Y-116750000D03*
D12*
X61500000Y-109750000D03*
X110750000Y-149500000D03*
D11*
X105500000Y-156500000D03*
X108000000Y-156500000D03*
X103000000Y-156500000D03*
D12*
X100250000Y-149500000D03*
X149000000Y-109750000D03*
D11*
X143750000Y-116750000D03*
X146250000Y-116750000D03*
X141250000Y-116750000D03*
D12*
X138500000Y-109750000D03*
X149000000Y-83750000D03*
D11*
X143750000Y-90750000D03*
X146250000Y-90750000D03*
X141250000Y-90750000D03*
D12*
X138500000Y-83750000D03*
X149000000Y-57750000D03*
D11*
X143750000Y-64750000D03*
X146250000Y-64750000D03*
X141250000Y-64750000D03*
D12*
X138500000Y-57750000D03*
X149000000Y-31750000D03*
D11*
X143750000Y-38750000D03*
X146250000Y-38750000D03*
X141250000Y-38750000D03*
D12*
X138500000Y-31750000D03*
D11*
X92750000Y-42750000D03*
X86550000Y-42750000D03*
X92750000Y-38750000D03*
X86550000Y-38750000D03*
X108250000Y-54000000D03*
X102050000Y-54000000D03*
X108250000Y-50000000D03*
X102050000Y-50000000D03*
X123900000Y-42750000D03*
X117700000Y-42750000D03*
X123900000Y-38750000D03*
X117700000Y-38750000D03*
X88850000Y-69000000D03*
X82650000Y-69000000D03*
X88850000Y-65000000D03*
X82650000Y-65000000D03*
X88850000Y-91750000D03*
X82650000Y-91750000D03*
X88850000Y-87750000D03*
X82650000Y-87750000D03*
X88850000Y-115750000D03*
X82650000Y-115750000D03*
X88850000Y-111750000D03*
X82650000Y-111750000D03*
X88850000Y-140750000D03*
X82650000Y-140750000D03*
X88850000Y-136750000D03*
X82650000Y-136750000D03*
X70100000Y-131250000D03*
X63900000Y-131250000D03*
X70100000Y-127250000D03*
X63900000Y-127250000D03*
X127850000Y-140750000D03*
X121650000Y-140750000D03*
X127850000Y-136750000D03*
X121650000Y-136750000D03*
X146750000Y-131200000D03*
X140550000Y-131200000D03*
X146750000Y-127200000D03*
X140550000Y-127200000D03*
X127850000Y-91750000D03*
X121650000Y-91750000D03*
X127850000Y-87750000D03*
X121650000Y-87750000D03*
X102650000Y-27250000D03*
X102650000Y-41750000D03*
X105150000Y-41750000D03*
X107650000Y-41750000D03*
X107650000Y-27250000D03*
D19*
X110750000Y-34250000D03*
D12*
X99550000Y-34250000D03*
D20*
X64000000Y-209500000D03*
D21*
X66540000Y-209500000D03*
X69080000Y-209500000D03*
X71620000Y-209500000D03*
X74160000Y-209500000D03*
X76700000Y-209500000D03*
X79240000Y-209500000D03*
D20*
X133000000Y-209500000D03*
D21*
X135540000Y-209500000D03*
X138080000Y-209500000D03*
X140620000Y-209500000D03*
X143160000Y-209500000D03*
X145700000Y-209500000D03*
D20*
X68000000Y-204000000D03*
D21*
X70540000Y-204000000D03*
X73080000Y-204000000D03*
X75620000Y-204000000D03*
X78160000Y-204000000D03*
M02*
