M48
;DRILL file {KiCad 4.0.6} date Sunday, September 10, 2017 'PMt' 10:34:42 PM
;FORMAT={-:-/ absolute / metric / decimal}
FMAT,2
METRIC,TZ
T1C0.400
T2C0.762
T3C0.813
T4C1.000
T5C1.001
T6C1.016
T7C1.200
T8C2.200
T9C3.200
%
G90
G05
M71
T1
X57.75Y-197.75
X60.75Y-197.5
X60.95Y-137.95
X62.6Y-171.4
X63.95Y-138.15
X64.25Y-122.25
X68.95Y-100.55
X71.15Y-101.95
X71.95Y-196.55
X71.95Y-200.75
X72.35Y-114.15
X73.15Y-115.75
X85.5Y-112.25
X87.Y-127.5
X87.25Y-49.5
X89.35Y-125.75
X90.75Y-80.
X91.Y-47.25
X91.25Y-70.25
X92.Y-79.75
X93.75Y-47.55
X94.05Y-139.85
X94.05Y-143.25
X96.75Y-48.15
X98.Y-152.5
X98.Y-154.5
X103.25Y-82.85
X103.95Y-85.35
X104.15Y-86.95
X104.25Y-136.
X104.25Y-140.5
X104.25Y-144.5
X105.55Y-196.55
X105.55Y-200.95
X106.Y-88.
X106.Y-89.75
X106.25Y-54.75
X106.25Y-144.25
X106.45Y-92.55
X106.5Y-58.25
X112.5Y-134.5
X114.Y-135.5
X114.55Y-51.35
X114.55Y-52.75
X115.35Y-56.65
X117.5Y-154.75
X119.Y-121.
X119.15Y-83.55
X119.5Y-156.5
X120.5Y-120.75
X120.5Y-154.
X120.55Y-100.95
X120.75Y-29.25
X120.95Y-56.65
X121.75Y-154.
X123.Y-29.25
X123.5Y-77.25
X124.25Y-55.75
X124.55Y-49.15
X126.25Y-55.75
X127.25Y-77.25
X130.55Y-101.75
X135.75Y-130.75
X135.75Y-132.5
X136.55Y-130.95
X136.55Y-132.55
X141.2Y-168.6
X143.75Y-55.45
X143.75Y-103.25
X153.05Y-27.75
X153.45Y-139.05
X153.85Y-26.65
X154.3Y-128.2
X154.45Y-34.25
T2
X139.75Y-190.25
X145.25Y-146.75
X145.25Y-190.25
T3
X75.44Y-165.86
X75.44Y-168.4
X75.44Y-170.94
X75.44Y-173.48
X75.44Y-176.02
X75.44Y-178.56
X75.44Y-181.1
X75.44Y-183.64
X83.06Y-165.86
X83.06Y-168.4
X83.06Y-170.94
X83.06Y-173.48
X83.06Y-176.02
X83.06Y-178.56
X83.06Y-181.1
X83.06Y-183.64
X97.58Y-60.83
X97.58Y-63.37
X97.58Y-65.91
X97.58Y-68.45
X97.58Y-70.99
X97.58Y-73.53
X97.58Y-76.07
X97.58Y-78.61
X97.58Y-81.15
X97.58Y-83.69
X97.58Y-86.23
X97.58Y-88.77
X97.58Y-92.83
X97.58Y-95.37
X97.58Y-97.91
X97.58Y-100.45
X97.58Y-102.99
X97.58Y-105.53
X97.58Y-108.07
X97.58Y-110.61
X97.58Y-113.15
X97.58Y-115.69
X97.58Y-118.23
X97.58Y-120.77
X101.44Y-124.11
X101.44Y-126.65
X101.44Y-129.19
X101.44Y-131.73
X101.44Y-134.27
X101.44Y-136.81
X101.44Y-139.35
X101.44Y-141.89
X109.06Y-124.11
X109.06Y-126.65
X109.06Y-129.19
X109.06Y-131.73
X109.06Y-134.27
X109.06Y-136.81
X109.06Y-139.35
X109.06Y-141.89
X112.82Y-60.83
X112.82Y-63.37
X112.82Y-65.91
X112.82Y-68.45
X112.82Y-70.99
X112.82Y-73.53
X112.82Y-76.07
X112.82Y-78.61
X112.82Y-81.15
X112.82Y-83.69
X112.82Y-86.23
X112.82Y-88.77
X112.82Y-92.83
X112.82Y-95.37
X112.82Y-97.91
X112.82Y-100.45
X112.82Y-102.99
X112.82Y-105.53
X112.82Y-108.07
X112.82Y-110.61
X112.82Y-113.15
X112.82Y-115.69
X112.82Y-118.23
X112.82Y-120.77
X127.94Y-165.86
X127.94Y-168.4
X127.94Y-170.94
X127.94Y-173.48
X127.94Y-176.02
X127.94Y-178.56
X127.94Y-181.1
X127.94Y-183.64
X135.56Y-165.86
X135.56Y-168.4
X135.56Y-170.94
X135.56Y-173.48
X135.56Y-176.02
X135.56Y-178.56
X135.56Y-181.1
X135.56Y-183.64
T4
X64.Y-127.25
X64.Y-131.25
X70.Y-127.25
X70.Y-131.25
X82.75Y-65.
X82.75Y-69.
X82.75Y-87.75
X82.75Y-91.75
X82.75Y-111.75
X82.75Y-115.75
X82.75Y-136.75
X82.75Y-140.75
X86.65Y-38.75
X86.65Y-42.75
X88.75Y-65.
X88.75Y-69.
X88.75Y-87.75
X88.75Y-91.75
X88.75Y-111.75
X88.75Y-115.75
X88.75Y-136.75
X88.75Y-140.75
X92.65Y-38.75
X92.65Y-42.75
X102.15Y-50.
X102.15Y-54.
X102.65Y-27.25
X102.65Y-41.75
X105.15Y-41.75
X107.65Y-27.25
X107.65Y-41.75
X108.15Y-50.
X108.15Y-54.
X117.8Y-38.75
X117.8Y-42.75
X121.75Y-87.75
X121.75Y-91.75
X121.75Y-111.75
X121.75Y-115.75
X121.75Y-136.75
X121.75Y-140.75
X121.95Y-65.
X121.95Y-69.
X123.8Y-38.75
X123.8Y-42.75
X127.75Y-87.75
X127.75Y-91.75
X127.75Y-111.75
X127.75Y-115.75
X127.75Y-136.75
X127.75Y-140.75
X127.95Y-65.
X127.95Y-69.
X140.65Y-127.2
X140.65Y-131.2
X146.65Y-127.2
X146.65Y-131.2
T5
X60.Y-127.25
X60.Y-134.87
X65.71Y-136.25
X68.25Y-136.25
X80.75Y-73.63
X80.75Y-81.25
X80.75Y-97.13
X80.75Y-104.75
X80.75Y-121.13
X80.75Y-128.75
X80.75Y-146.13
X80.75Y-153.75
X84.46Y-122.
X84.51Y-146.6
X84.71Y-74.75
X84.71Y-98.75
X87.Y-122.
X87.05Y-146.6
X87.25Y-74.75
X87.25Y-98.75
X88.13Y-160.75
X88.13Y-165.75
X88.13Y-170.75
X88.13Y-175.75
X88.13Y-180.75
X88.13Y-185.75
X88.13Y-190.75
X95.75Y-160.75
X95.75Y-165.75
X95.75Y-170.75
X95.75Y-175.75
X95.75Y-180.75
X95.75Y-185.75
X95.75Y-190.75
X99.21Y-160.75
X99.21Y-165.75
X99.21Y-170.75
X99.21Y-175.75
X99.21Y-180.75
X99.21Y-185.75
X99.21Y-190.75
X99.9Y0.12
X99.9Y-7.5
X101.75Y-160.75
X101.75Y-165.75
X101.75Y-170.75
X101.75Y-175.75
X101.75Y-180.75
X101.75Y-185.75
X101.75Y-190.75
X103.86Y-2.25
X106.4Y-2.25
X109.25Y-160.75
X109.25Y-165.75
X109.25Y-170.75
X109.25Y-175.75
X109.25Y-180.75
X109.25Y-185.75
X109.25Y-190.75
X111.79Y-160.75
X111.79Y-165.75
X111.79Y-170.75
X111.79Y-175.75
X111.79Y-180.75
X111.79Y-185.75
X111.79Y-190.75
X115.25Y-160.75
X115.25Y-165.75
X115.25Y-170.75
X115.25Y-175.75
X115.25Y-180.75
X115.25Y-185.75
X115.25Y-190.75
X122.87Y-160.75
X122.87Y-165.75
X122.87Y-170.75
X122.87Y-175.75
X122.87Y-180.75
X122.87Y-185.75
X122.87Y-190.75
X123.1Y-74.5
X123.1Y-98.
X123.1Y-121.9
X123.1Y-146.5
X125.64Y-74.5
X125.64Y-98.
X125.64Y-121.9
X125.64Y-146.5
X129.95Y-73.63
X129.95Y-81.25
X129.95Y-97.13
X129.95Y-104.75
X129.95Y-121.13
X129.95Y-128.75
X129.95Y-146.13
X129.95Y-153.75
X142.5Y-136.1
X145.04Y-136.1
X149.75Y-127.25
X149.75Y-134.87
T6
X80.89Y-28.52
X80.89Y-31.06
X80.89Y-33.6
X80.89Y-36.14
X80.89Y-38.68
X80.89Y-41.22
X80.89Y-46.3
X80.89Y-48.84
X80.89Y-51.38
X80.89Y-53.92
X80.89Y-56.46
X80.89Y-59.
X129.15Y-19.376
X129.15Y-21.916
X129.15Y-24.456
X129.15Y-26.996
X129.15Y-29.536
X129.15Y-32.076
X129.15Y-34.616
X129.15Y-37.156
X129.15Y-41.22
X129.15Y-43.76
X129.15Y-46.3
X129.15Y-48.84
X129.15Y-51.38
X129.15Y-53.92
X129.15Y-56.46
X129.15Y-59.
T7
X63.25Y-190.25
X64.25Y-12.75
X64.25Y-38.75
X64.25Y-64.75
X64.25Y-90.75
X64.25Y-116.75
X66.75Y-12.75
X66.75Y-38.75
X66.75Y-64.75
X66.75Y-90.75
X66.75Y-116.75
X68.75Y-146.75
X68.75Y-190.25
X69.25Y-12.75
X69.25Y-38.75
X69.25Y-64.75
X69.25Y-90.75
X69.25Y-116.75
X83.5Y-202.75
X83.5Y-208.25
X103.Y-156.5
X105.5Y-156.5
X108.Y-156.5
X127.Y-208.25
X141.25Y-12.75
X141.25Y-38.75
X141.25Y-64.75
X141.25Y-90.75
X141.25Y-116.75
X143.75Y-12.75
X143.75Y-38.75
X143.75Y-64.75
X143.75Y-90.75
X143.75Y-116.75
X146.25Y-12.75
X146.25Y-38.75
X146.25Y-64.75
X146.25Y-90.75
X146.25Y-116.75
T8
X61.5Y-5.75
X61.5Y-31.75
X61.5Y-57.75
X61.5Y-83.75
X61.5Y-109.75
X72.Y-5.75
X72.Y-31.75
X72.Y-57.75
X72.Y-83.75
X72.Y-109.75
X99.55Y-34.25
X100.25Y-149.5
X110.75Y-34.25
X110.75Y-149.5
X138.5Y-5.75
X138.5Y-31.75
X138.5Y-57.75
X138.5Y-83.75
X138.5Y-109.75
X149.Y-5.75
X149.Y-31.75
X149.Y-57.75
X149.Y-83.75
X149.Y-109.75
T9
X58.4Y1.8
X58.4Y-99.7
X58.4Y-209.2
X150.6Y-99.7
X151.6Y1.8
X151.6Y-209.2
T0
M30
