G04 #@! TF.FileFunction,Legend,Bot*
%FSLAX46Y46*%
G04 Gerber Fmt 4.6, Leading zero omitted, Abs format (unit mm)*
G04 Created by KiCad (PCBNEW 4.0.6) date Monday, July 02, 2018 'PMt' 05:04:15 PM*
%MOMM*%
%LPD*%
G01*
G04 APERTURE LIST*
%ADD10C,0.100000*%
%ADD11C,0.200000*%
%ADD12C,0.120000*%
G04 APERTURE END LIST*
D10*
D11*
X137642857Y-203452381D02*
X137642857Y-202452381D01*
X137642857Y-203404762D02*
X137738095Y-203452381D01*
X137928572Y-203452381D01*
X138023810Y-203404762D01*
X138071429Y-203357143D01*
X138119048Y-203261905D01*
X138119048Y-202976190D01*
X138071429Y-202880952D01*
X138023810Y-202833333D01*
X137928572Y-202785714D01*
X137738095Y-202785714D01*
X137642857Y-202833333D01*
X137166667Y-203452381D02*
X137166667Y-202785714D01*
X137166667Y-202452381D02*
X137214286Y-202500000D01*
X137166667Y-202547619D01*
X137119048Y-202500000D01*
X137166667Y-202452381D01*
X137166667Y-202547619D01*
X136261905Y-202785714D02*
X136261905Y-203595238D01*
X136309524Y-203690476D01*
X136357143Y-203738095D01*
X136452382Y-203785714D01*
X136595239Y-203785714D01*
X136690477Y-203738095D01*
X136261905Y-203404762D02*
X136357143Y-203452381D01*
X136547620Y-203452381D01*
X136642858Y-203404762D01*
X136690477Y-203357143D01*
X136738096Y-203261905D01*
X136738096Y-202976190D01*
X136690477Y-202880952D01*
X136642858Y-202833333D01*
X136547620Y-202785714D01*
X136357143Y-202785714D01*
X136261905Y-202833333D01*
X135785715Y-203452381D02*
X135785715Y-202785714D01*
X135785715Y-202452381D02*
X135833334Y-202500000D01*
X135785715Y-202547619D01*
X135738096Y-202500000D01*
X135785715Y-202452381D01*
X135785715Y-202547619D01*
X135452382Y-202785714D02*
X135071430Y-202785714D01*
X135309525Y-202452381D02*
X135309525Y-203309524D01*
X135261906Y-203404762D01*
X135166668Y-203452381D01*
X135071430Y-203452381D01*
X134309524Y-203452381D02*
X134309524Y-202928571D01*
X134357143Y-202833333D01*
X134452381Y-202785714D01*
X134642858Y-202785714D01*
X134738096Y-202833333D01*
X134309524Y-203404762D02*
X134404762Y-203452381D01*
X134642858Y-203452381D01*
X134738096Y-203404762D01*
X134785715Y-203309524D01*
X134785715Y-203214286D01*
X134738096Y-203119048D01*
X134642858Y-203071429D01*
X134404762Y-203071429D01*
X134309524Y-203023810D01*
X133690477Y-203452381D02*
X133785715Y-203404762D01*
X133833334Y-203309524D01*
X133833334Y-202452381D01*
X132547619Y-202785714D02*
X132547619Y-203785714D01*
X132547619Y-202833333D02*
X132452381Y-202785714D01*
X132261904Y-202785714D01*
X132166666Y-202833333D01*
X132119047Y-202880952D01*
X132071428Y-202976190D01*
X132071428Y-203261905D01*
X132119047Y-203357143D01*
X132166666Y-203404762D01*
X132261904Y-203452381D01*
X132452381Y-203452381D01*
X132547619Y-203404762D01*
X131642857Y-203452381D02*
X131642857Y-202785714D01*
X131642857Y-202452381D02*
X131690476Y-202500000D01*
X131642857Y-202547619D01*
X131595238Y-202500000D01*
X131642857Y-202452381D01*
X131642857Y-202547619D01*
X131166667Y-202785714D02*
X131166667Y-203452381D01*
X131166667Y-202880952D02*
X131119048Y-202833333D01*
X131023810Y-202785714D01*
X130880952Y-202785714D01*
X130785714Y-202833333D01*
X130738095Y-202928571D01*
X130738095Y-203452381D01*
X130309524Y-203404762D02*
X130214286Y-203452381D01*
X130023810Y-203452381D01*
X129928571Y-203404762D01*
X129880952Y-203309524D01*
X129880952Y-203261905D01*
X129928571Y-203166667D01*
X130023810Y-203119048D01*
X130166667Y-203119048D01*
X130261905Y-203071429D01*
X130309524Y-202976190D01*
X130309524Y-202928571D01*
X130261905Y-202833333D01*
X130166667Y-202785714D01*
X130023810Y-202785714D01*
X129928571Y-202833333D01*
X146214286Y-200952381D02*
X146214286Y-199952381D01*
X145976191Y-199952381D01*
X145833333Y-200000000D01*
X145738095Y-200095238D01*
X145690476Y-200190476D01*
X145642857Y-200380952D01*
X145642857Y-200523810D01*
X145690476Y-200714286D01*
X145738095Y-200809524D01*
X145833333Y-200904762D01*
X145976191Y-200952381D01*
X146214286Y-200952381D01*
X144690476Y-200952381D02*
X145261905Y-200952381D01*
X144976191Y-200952381D02*
X144976191Y-199952381D01*
X145071429Y-200095238D01*
X145166667Y-200190476D01*
X145261905Y-200238095D01*
X144357143Y-199952381D02*
X143738095Y-199952381D01*
X144071429Y-200333333D01*
X143928571Y-200333333D01*
X143833333Y-200380952D01*
X143785714Y-200428571D01*
X143738095Y-200523810D01*
X143738095Y-200761905D01*
X143785714Y-200857143D01*
X143833333Y-200904762D01*
X143928571Y-200952381D01*
X144214286Y-200952381D01*
X144309524Y-200904762D01*
X144357143Y-200857143D01*
X142642857Y-199952381D02*
X143119048Y-199952381D01*
X143166667Y-200428571D01*
X143119048Y-200380952D01*
X143023810Y-200333333D01*
X142785714Y-200333333D01*
X142690476Y-200380952D01*
X142642857Y-200428571D01*
X142595238Y-200523810D01*
X142595238Y-200761905D01*
X142642857Y-200857143D01*
X142690476Y-200904762D01*
X142785714Y-200952381D01*
X143023810Y-200952381D01*
X143119048Y-200904762D01*
X143166667Y-200857143D01*
X142261905Y-200285714D02*
X142023810Y-200952381D01*
X141785714Y-200285714D01*
X140690476Y-200285714D02*
X140690476Y-201095238D01*
X140738095Y-201190476D01*
X140785714Y-201238095D01*
X140880953Y-201285714D01*
X141023810Y-201285714D01*
X141119048Y-201238095D01*
X140690476Y-200904762D02*
X140785714Y-200952381D01*
X140976191Y-200952381D01*
X141071429Y-200904762D01*
X141119048Y-200857143D01*
X141166667Y-200761905D01*
X141166667Y-200476190D01*
X141119048Y-200380952D01*
X141071429Y-200333333D01*
X140976191Y-200285714D01*
X140785714Y-200285714D01*
X140690476Y-200333333D01*
X140214286Y-200285714D02*
X140214286Y-200952381D01*
X140214286Y-200380952D02*
X140166667Y-200333333D01*
X140071429Y-200285714D01*
X139928571Y-200285714D01*
X139833333Y-200333333D01*
X139785714Y-200428571D01*
X139785714Y-200952381D01*
X138880952Y-200952381D02*
X138880952Y-199952381D01*
X138880952Y-200904762D02*
X138976190Y-200952381D01*
X139166667Y-200952381D01*
X139261905Y-200904762D01*
X139309524Y-200857143D01*
X139357143Y-200761905D01*
X139357143Y-200476190D01*
X139309524Y-200380952D01*
X139261905Y-200333333D01*
X139166667Y-200285714D01*
X138976190Y-200285714D01*
X138880952Y-200333333D01*
X130714286Y-209952381D02*
X130714286Y-209285714D01*
X130714286Y-209380952D02*
X130666667Y-209333333D01*
X130571429Y-209285714D01*
X130428571Y-209285714D01*
X130333333Y-209333333D01*
X130285714Y-209428571D01*
X130285714Y-209952381D01*
X130285714Y-209428571D02*
X130238095Y-209333333D01*
X130142857Y-209285714D01*
X130000000Y-209285714D01*
X129904762Y-209333333D01*
X129857143Y-209428571D01*
X129857143Y-209952381D01*
X128952381Y-209285714D02*
X128952381Y-209952381D01*
X129380953Y-209285714D02*
X129380953Y-209809524D01*
X129333334Y-209904762D01*
X129238096Y-209952381D01*
X129095238Y-209952381D01*
X129000000Y-209904762D01*
X128952381Y-209857143D01*
X128571429Y-209952381D02*
X128047619Y-209285714D01*
X128571429Y-209285714D02*
X128047619Y-209952381D01*
X126904762Y-209285714D02*
X126904762Y-210285714D01*
X126904762Y-209333333D02*
X126809524Y-209285714D01*
X126619047Y-209285714D01*
X126523809Y-209333333D01*
X126476190Y-209380952D01*
X126428571Y-209476190D01*
X126428571Y-209761905D01*
X126476190Y-209857143D01*
X126523809Y-209904762D01*
X126619047Y-209952381D01*
X126809524Y-209952381D01*
X126904762Y-209904762D01*
X126000000Y-209952381D02*
X126000000Y-209285714D01*
X126000000Y-208952381D02*
X126047619Y-209000000D01*
X126000000Y-209047619D01*
X125952381Y-209000000D01*
X126000000Y-208952381D01*
X126000000Y-209047619D01*
X125523810Y-209285714D02*
X125523810Y-209952381D01*
X125523810Y-209380952D02*
X125476191Y-209333333D01*
X125380953Y-209285714D01*
X125238095Y-209285714D01*
X125142857Y-209333333D01*
X125095238Y-209428571D01*
X125095238Y-209952381D01*
X124666667Y-209904762D02*
X124571429Y-209952381D01*
X124380953Y-209952381D01*
X124285714Y-209904762D01*
X124238095Y-209809524D01*
X124238095Y-209761905D01*
X124285714Y-209666667D01*
X124380953Y-209619048D01*
X124523810Y-209619048D01*
X124619048Y-209571429D01*
X124666667Y-209476190D01*
X124666667Y-209428571D01*
X124619048Y-209333333D01*
X124523810Y-209285714D01*
X124380953Y-209285714D01*
X124285714Y-209333333D01*
X146190476Y-207452381D02*
X146761905Y-207452381D01*
X146476191Y-207452381D02*
X146476191Y-206452381D01*
X146571429Y-206595238D01*
X146666667Y-206690476D01*
X146761905Y-206738095D01*
X145857143Y-206452381D02*
X145238095Y-206452381D01*
X145571429Y-206833333D01*
X145428571Y-206833333D01*
X145333333Y-206880952D01*
X145285714Y-206928571D01*
X145238095Y-207023810D01*
X145238095Y-207261905D01*
X145285714Y-207357143D01*
X145333333Y-207404762D01*
X145428571Y-207452381D01*
X145714286Y-207452381D01*
X145809524Y-207404762D01*
X145857143Y-207357143D01*
X143190476Y-207452381D02*
X143761905Y-207452381D01*
X143476191Y-207452381D02*
X143476191Y-206452381D01*
X143571429Y-206595238D01*
X143666667Y-206690476D01*
X143761905Y-206738095D01*
X142333333Y-206785714D02*
X142333333Y-207452381D01*
X142571429Y-206404762D02*
X142809524Y-207119048D01*
X142190476Y-207119048D01*
X140690476Y-207452381D02*
X141261905Y-207452381D01*
X140976191Y-207452381D02*
X140976191Y-206452381D01*
X141071429Y-206595238D01*
X141166667Y-206690476D01*
X141261905Y-206738095D01*
X139738095Y-207452381D02*
X140309524Y-207452381D01*
X140023810Y-207452381D02*
X140023810Y-206452381D01*
X140119048Y-206595238D01*
X140214286Y-206690476D01*
X140309524Y-206738095D01*
X138190476Y-207452381D02*
X138761905Y-207452381D01*
X138476191Y-207452381D02*
X138476191Y-206452381D01*
X138571429Y-206595238D01*
X138666667Y-206690476D01*
X138761905Y-206738095D01*
X137571429Y-206452381D02*
X137476190Y-206452381D01*
X137380952Y-206500000D01*
X137333333Y-206547619D01*
X137285714Y-206642857D01*
X137238095Y-206833333D01*
X137238095Y-207071429D01*
X137285714Y-207261905D01*
X137333333Y-207357143D01*
X137380952Y-207404762D01*
X137476190Y-207452381D01*
X137571429Y-207452381D01*
X137666667Y-207404762D01*
X137714286Y-207357143D01*
X137761905Y-207261905D01*
X137809524Y-207071429D01*
X137809524Y-206833333D01*
X137761905Y-206642857D01*
X137714286Y-206547619D01*
X137666667Y-206500000D01*
X137571429Y-206452381D01*
X135642857Y-206452381D02*
X136119048Y-206452381D01*
X136166667Y-206928571D01*
X136119048Y-206880952D01*
X136023810Y-206833333D01*
X135785714Y-206833333D01*
X135690476Y-206880952D01*
X135642857Y-206928571D01*
X135595238Y-207023810D01*
X135595238Y-207261905D01*
X135642857Y-207357143D01*
X135690476Y-207404762D01*
X135785714Y-207452381D01*
X136023810Y-207452381D01*
X136119048Y-207404762D01*
X136166667Y-207357143D01*
X135261905Y-206785714D02*
X135023810Y-207452381D01*
X134785714Y-206785714D01*
X133690476Y-206785714D02*
X133690476Y-207595238D01*
X133738095Y-207690476D01*
X133785714Y-207738095D01*
X133880953Y-207785714D01*
X134023810Y-207785714D01*
X134119048Y-207738095D01*
X133690476Y-207404762D02*
X133785714Y-207452381D01*
X133976191Y-207452381D01*
X134071429Y-207404762D01*
X134119048Y-207357143D01*
X134166667Y-207261905D01*
X134166667Y-206976190D01*
X134119048Y-206880952D01*
X134071429Y-206833333D01*
X133976191Y-206785714D01*
X133785714Y-206785714D01*
X133690476Y-206833333D01*
X133214286Y-206785714D02*
X133214286Y-207452381D01*
X133214286Y-206880952D02*
X133166667Y-206833333D01*
X133071429Y-206785714D01*
X132928571Y-206785714D01*
X132833333Y-206833333D01*
X132785714Y-206928571D01*
X132785714Y-207452381D01*
X131880952Y-207452381D02*
X131880952Y-206452381D01*
X131880952Y-207404762D02*
X131976190Y-207452381D01*
X132166667Y-207452381D01*
X132261905Y-207404762D01*
X132309524Y-207357143D01*
X132357143Y-207261905D01*
X132357143Y-206976190D01*
X132309524Y-206880952D01*
X132261905Y-206833333D01*
X132166667Y-206785714D01*
X131976190Y-206785714D01*
X131880952Y-206833333D01*
X78390476Y-201952381D02*
X78200000Y-201952381D01*
X78104761Y-201904762D01*
X78057142Y-201857143D01*
X77961904Y-201714286D01*
X77914285Y-201523810D01*
X77914285Y-201142857D01*
X77961904Y-201047619D01*
X78009523Y-201000000D01*
X78104761Y-200952381D01*
X78295238Y-200952381D01*
X78390476Y-201000000D01*
X78438095Y-201047619D01*
X78485714Y-201142857D01*
X78485714Y-201380952D01*
X78438095Y-201476190D01*
X78390476Y-201523810D01*
X78295238Y-201571429D01*
X78104761Y-201571429D01*
X78009523Y-201523810D01*
X77961904Y-201476190D01*
X77914285Y-201380952D01*
X75695238Y-201380952D02*
X75790476Y-201333333D01*
X75838095Y-201285714D01*
X75885714Y-201190476D01*
X75885714Y-201142857D01*
X75838095Y-201047619D01*
X75790476Y-201000000D01*
X75695238Y-200952381D01*
X75504761Y-200952381D01*
X75409523Y-201000000D01*
X75361904Y-201047619D01*
X75314285Y-201142857D01*
X75314285Y-201190476D01*
X75361904Y-201285714D01*
X75409523Y-201333333D01*
X75504761Y-201380952D01*
X75695238Y-201380952D01*
X75790476Y-201428571D01*
X75838095Y-201476190D01*
X75885714Y-201571429D01*
X75885714Y-201761905D01*
X75838095Y-201857143D01*
X75790476Y-201904762D01*
X75695238Y-201952381D01*
X75504761Y-201952381D01*
X75409523Y-201904762D01*
X75361904Y-201857143D01*
X75314285Y-201761905D01*
X75314285Y-201571429D01*
X75361904Y-201476190D01*
X75409523Y-201428571D01*
X75504761Y-201380952D01*
X73190476Y-201952381D02*
X73761905Y-201952381D01*
X73476191Y-201952381D02*
X73476191Y-200952381D01*
X73571429Y-201095238D01*
X73666667Y-201190476D01*
X73761905Y-201238095D01*
X72238095Y-201952381D02*
X72809524Y-201952381D01*
X72523810Y-201952381D02*
X72523810Y-200952381D01*
X72619048Y-201095238D01*
X72714286Y-201190476D01*
X72809524Y-201238095D01*
X65442857Y-203452381D02*
X65919048Y-203452381D01*
X65966667Y-203928571D01*
X65919048Y-203880952D01*
X65823810Y-203833333D01*
X65585714Y-203833333D01*
X65490476Y-203880952D01*
X65442857Y-203928571D01*
X65395238Y-204023810D01*
X65395238Y-204261905D01*
X65442857Y-204357143D01*
X65490476Y-204404762D01*
X65585714Y-204452381D01*
X65823810Y-204452381D01*
X65919048Y-204404762D01*
X65966667Y-204357143D01*
X64919048Y-204452381D02*
X64728572Y-204452381D01*
X64633333Y-204404762D01*
X64585714Y-204357143D01*
X64490476Y-204214286D01*
X64442857Y-204023810D01*
X64442857Y-203642857D01*
X64490476Y-203547619D01*
X64538095Y-203500000D01*
X64633333Y-203452381D01*
X64823810Y-203452381D01*
X64919048Y-203500000D01*
X64966667Y-203547619D01*
X65014286Y-203642857D01*
X65014286Y-203880952D01*
X64966667Y-203976190D01*
X64919048Y-204023810D01*
X64823810Y-204071429D01*
X64633333Y-204071429D01*
X64538095Y-204023810D01*
X64490476Y-203976190D01*
X64442857Y-203880952D01*
X63538095Y-203452381D02*
X64014286Y-203452381D01*
X64061905Y-203928571D01*
X64014286Y-203880952D01*
X63919048Y-203833333D01*
X63680952Y-203833333D01*
X63585714Y-203880952D01*
X63538095Y-203928571D01*
X63490476Y-204023810D01*
X63490476Y-204261905D01*
X63538095Y-204357143D01*
X63585714Y-204404762D01*
X63680952Y-204452381D01*
X63919048Y-204452381D01*
X64014286Y-204404762D01*
X64061905Y-204357143D01*
X62300000Y-203785714D02*
X62300000Y-204785714D01*
X62300000Y-203833333D02*
X62204762Y-203785714D01*
X62014285Y-203785714D01*
X61919047Y-203833333D01*
X61871428Y-203880952D01*
X61823809Y-203976190D01*
X61823809Y-204261905D01*
X61871428Y-204357143D01*
X61919047Y-204404762D01*
X62014285Y-204452381D01*
X62204762Y-204452381D01*
X62300000Y-204404762D01*
X61395238Y-204452381D02*
X61395238Y-203785714D01*
X61395238Y-203452381D02*
X61442857Y-203500000D01*
X61395238Y-203547619D01*
X61347619Y-203500000D01*
X61395238Y-203452381D01*
X61395238Y-203547619D01*
X60919048Y-203785714D02*
X60919048Y-204452381D01*
X60919048Y-203880952D02*
X60871429Y-203833333D01*
X60776191Y-203785714D01*
X60633333Y-203785714D01*
X60538095Y-203833333D01*
X60490476Y-203928571D01*
X60490476Y-204452381D01*
X60061905Y-204404762D02*
X59966667Y-204452381D01*
X59776191Y-204452381D01*
X59680952Y-204404762D01*
X59633333Y-204309524D01*
X59633333Y-204261905D01*
X59680952Y-204166667D01*
X59776191Y-204119048D01*
X59919048Y-204119048D01*
X60014286Y-204071429D01*
X60061905Y-203976190D01*
X60061905Y-203928571D01*
X60014286Y-203833333D01*
X59919048Y-203785714D01*
X59776191Y-203785714D01*
X59680952Y-203833333D01*
X89285714Y-209952381D02*
X89285714Y-209428571D01*
X89333333Y-209333333D01*
X89428571Y-209285714D01*
X89619048Y-209285714D01*
X89714286Y-209333333D01*
X89285714Y-209904762D02*
X89380952Y-209952381D01*
X89619048Y-209952381D01*
X89714286Y-209904762D01*
X89761905Y-209809524D01*
X89761905Y-209714286D01*
X89714286Y-209619048D01*
X89619048Y-209571429D01*
X89380952Y-209571429D01*
X89285714Y-209523810D01*
X88809524Y-209285714D02*
X88809524Y-209952381D01*
X88809524Y-209380952D02*
X88761905Y-209333333D01*
X88666667Y-209285714D01*
X88523809Y-209285714D01*
X88428571Y-209333333D01*
X88380952Y-209428571D01*
X88380952Y-209952381D01*
X87476190Y-209952381D02*
X87476190Y-209428571D01*
X87523809Y-209333333D01*
X87619047Y-209285714D01*
X87809524Y-209285714D01*
X87904762Y-209333333D01*
X87476190Y-209904762D02*
X87571428Y-209952381D01*
X87809524Y-209952381D01*
X87904762Y-209904762D01*
X87952381Y-209809524D01*
X87952381Y-209714286D01*
X87904762Y-209619048D01*
X87809524Y-209571429D01*
X87571428Y-209571429D01*
X87476190Y-209523810D01*
X86857143Y-209952381D02*
X86952381Y-209904762D01*
X87000000Y-209809524D01*
X87000000Y-208952381D01*
X86333333Y-209952381D02*
X86428571Y-209904762D01*
X86476190Y-209857143D01*
X86523809Y-209761905D01*
X86523809Y-209476190D01*
X86476190Y-209380952D01*
X86428571Y-209333333D01*
X86333333Y-209285714D01*
X86190475Y-209285714D01*
X86095237Y-209333333D01*
X86047618Y-209380952D01*
X85999999Y-209476190D01*
X85999999Y-209761905D01*
X86047618Y-209857143D01*
X86095237Y-209904762D01*
X86190475Y-209952381D01*
X86333333Y-209952381D01*
X85142856Y-209285714D02*
X85142856Y-210095238D01*
X85190475Y-210190476D01*
X85238094Y-210238095D01*
X85333333Y-210285714D01*
X85476190Y-210285714D01*
X85571428Y-210238095D01*
X85142856Y-209904762D02*
X85238094Y-209952381D01*
X85428571Y-209952381D01*
X85523809Y-209904762D01*
X85571428Y-209857143D01*
X85619047Y-209761905D01*
X85619047Y-209476190D01*
X85571428Y-209380952D01*
X85523809Y-209333333D01*
X85428571Y-209285714D01*
X85238094Y-209285714D01*
X85142856Y-209333333D01*
X83904761Y-209285714D02*
X83904761Y-210285714D01*
X83904761Y-209333333D02*
X83809523Y-209285714D01*
X83619046Y-209285714D01*
X83523808Y-209333333D01*
X83476189Y-209380952D01*
X83428570Y-209476190D01*
X83428570Y-209761905D01*
X83476189Y-209857143D01*
X83523808Y-209904762D01*
X83619046Y-209952381D01*
X83809523Y-209952381D01*
X83904761Y-209904762D01*
X82999999Y-209952381D02*
X82999999Y-209285714D01*
X82999999Y-208952381D02*
X83047618Y-209000000D01*
X82999999Y-209047619D01*
X82952380Y-209000000D01*
X82999999Y-208952381D01*
X82999999Y-209047619D01*
X82523809Y-209285714D02*
X82523809Y-209952381D01*
X82523809Y-209380952D02*
X82476190Y-209333333D01*
X82380952Y-209285714D01*
X82238094Y-209285714D01*
X82142856Y-209333333D01*
X82095237Y-209428571D01*
X82095237Y-209952381D01*
X81666666Y-209904762D02*
X81571428Y-209952381D01*
X81380952Y-209952381D01*
X81285713Y-209904762D01*
X81238094Y-209809524D01*
X81238094Y-209761905D01*
X81285713Y-209666667D01*
X81380952Y-209619048D01*
X81523809Y-209619048D01*
X81619047Y-209571429D01*
X81666666Y-209476190D01*
X81666666Y-209428571D01*
X81619047Y-209333333D01*
X81523809Y-209285714D01*
X81380952Y-209285714D01*
X81285713Y-209333333D01*
X70642857Y-200952381D02*
X71119048Y-200952381D01*
X71166667Y-201428571D01*
X71119048Y-201380952D01*
X71023810Y-201333333D01*
X70785714Y-201333333D01*
X70690476Y-201380952D01*
X70642857Y-201428571D01*
X70595238Y-201523810D01*
X70595238Y-201761905D01*
X70642857Y-201857143D01*
X70690476Y-201904762D01*
X70785714Y-201952381D01*
X71023810Y-201952381D01*
X71119048Y-201904762D01*
X71166667Y-201857143D01*
X70261905Y-201285714D02*
X70023810Y-201952381D01*
X69785714Y-201285714D01*
X68690476Y-201285714D02*
X68690476Y-202095238D01*
X68738095Y-202190476D01*
X68785714Y-202238095D01*
X68880953Y-202285714D01*
X69023810Y-202285714D01*
X69119048Y-202238095D01*
X68690476Y-201904762D02*
X68785714Y-201952381D01*
X68976191Y-201952381D01*
X69071429Y-201904762D01*
X69119048Y-201857143D01*
X69166667Y-201761905D01*
X69166667Y-201476190D01*
X69119048Y-201380952D01*
X69071429Y-201333333D01*
X68976191Y-201285714D01*
X68785714Y-201285714D01*
X68690476Y-201333333D01*
X68214286Y-201285714D02*
X68214286Y-201952381D01*
X68214286Y-201380952D02*
X68166667Y-201333333D01*
X68071429Y-201285714D01*
X67928571Y-201285714D01*
X67833333Y-201333333D01*
X67785714Y-201428571D01*
X67785714Y-201952381D01*
X66880952Y-201952381D02*
X66880952Y-200952381D01*
X66880952Y-201904762D02*
X66976190Y-201952381D01*
X67166667Y-201952381D01*
X67261905Y-201904762D01*
X67309524Y-201857143D01*
X67357143Y-201761905D01*
X67357143Y-201476190D01*
X67309524Y-201380952D01*
X67261905Y-201333333D01*
X67166667Y-201285714D01*
X66976190Y-201285714D01*
X66880952Y-201333333D01*
X79714286Y-207166667D02*
X79238095Y-207166667D01*
X79809524Y-207452381D02*
X79476191Y-206452381D01*
X79142857Y-207452381D01*
X78333333Y-206452381D02*
X78809524Y-206452381D01*
X78857143Y-206928571D01*
X78809524Y-206880952D01*
X78714286Y-206833333D01*
X78476190Y-206833333D01*
X78380952Y-206880952D01*
X78333333Y-206928571D01*
X78285714Y-207023810D01*
X78285714Y-207261905D01*
X78333333Y-207357143D01*
X78380952Y-207404762D01*
X78476190Y-207452381D01*
X78714286Y-207452381D01*
X78809524Y-207404762D01*
X78857143Y-207357143D01*
X77214286Y-207166667D02*
X76738095Y-207166667D01*
X77309524Y-207452381D02*
X76976191Y-206452381D01*
X76642857Y-207452381D01*
X75880952Y-206785714D02*
X75880952Y-207452381D01*
X76119048Y-206404762D02*
X76357143Y-207119048D01*
X75738095Y-207119048D01*
X74714286Y-207166667D02*
X74238095Y-207166667D01*
X74809524Y-207452381D02*
X74476191Y-206452381D01*
X74142857Y-207452381D01*
X73904762Y-206452381D02*
X73285714Y-206452381D01*
X73619048Y-206833333D01*
X73476190Y-206833333D01*
X73380952Y-206880952D01*
X73333333Y-206928571D01*
X73285714Y-207023810D01*
X73285714Y-207261905D01*
X73333333Y-207357143D01*
X73380952Y-207404762D01*
X73476190Y-207452381D01*
X73761905Y-207452381D01*
X73857143Y-207404762D01*
X73904762Y-207357143D01*
X72214286Y-207166667D02*
X71738095Y-207166667D01*
X72309524Y-207452381D02*
X71976191Y-206452381D01*
X71642857Y-207452381D01*
X71357143Y-206547619D02*
X71309524Y-206500000D01*
X71214286Y-206452381D01*
X70976190Y-206452381D01*
X70880952Y-206500000D01*
X70833333Y-206547619D01*
X70785714Y-206642857D01*
X70785714Y-206738095D01*
X70833333Y-206880952D01*
X71404762Y-207452381D01*
X70785714Y-207452381D01*
X69928571Y-206785714D02*
X69690476Y-207452381D01*
X69452380Y-206785714D01*
X69071428Y-207452381D02*
X69071428Y-206785714D01*
X69071428Y-206452381D02*
X69119047Y-206500000D01*
X69071428Y-206547619D01*
X69023809Y-206500000D01*
X69071428Y-206452381D01*
X69071428Y-206547619D01*
X68595238Y-206785714D02*
X68595238Y-207452381D01*
X68595238Y-206880952D02*
X68547619Y-206833333D01*
X68452381Y-206785714D01*
X68309523Y-206785714D01*
X68214285Y-206833333D01*
X68166666Y-206928571D01*
X68166666Y-207452381D01*
X66642857Y-206452381D02*
X67119048Y-206452381D01*
X67166667Y-206928571D01*
X67119048Y-206880952D01*
X67023810Y-206833333D01*
X66785714Y-206833333D01*
X66690476Y-206880952D01*
X66642857Y-206928571D01*
X66595238Y-207023810D01*
X66595238Y-207261905D01*
X66642857Y-207357143D01*
X66690476Y-207404762D01*
X66785714Y-207452381D01*
X67023810Y-207452381D01*
X67119048Y-207404762D01*
X67166667Y-207357143D01*
X66261905Y-206785714D02*
X66023810Y-207452381D01*
X65785714Y-206785714D01*
X64190476Y-206785714D02*
X64190476Y-207595238D01*
X64238095Y-207690476D01*
X64285714Y-207738095D01*
X64380953Y-207785714D01*
X64523810Y-207785714D01*
X64619048Y-207738095D01*
X64190476Y-207404762D02*
X64285714Y-207452381D01*
X64476191Y-207452381D01*
X64571429Y-207404762D01*
X64619048Y-207357143D01*
X64666667Y-207261905D01*
X64666667Y-206976190D01*
X64619048Y-206880952D01*
X64571429Y-206833333D01*
X64476191Y-206785714D01*
X64285714Y-206785714D01*
X64190476Y-206833333D01*
X63714286Y-206785714D02*
X63714286Y-207452381D01*
X63714286Y-206880952D02*
X63666667Y-206833333D01*
X63571429Y-206785714D01*
X63428571Y-206785714D01*
X63333333Y-206833333D01*
X63285714Y-206928571D01*
X63285714Y-207452381D01*
X62380952Y-207452381D02*
X62380952Y-206452381D01*
X62380952Y-207404762D02*
X62476190Y-207452381D01*
X62666667Y-207452381D01*
X62761905Y-207404762D01*
X62809524Y-207357143D01*
X62857143Y-207261905D01*
X62857143Y-206976190D01*
X62809524Y-206880952D01*
X62761905Y-206833333D01*
X62666667Y-206785714D01*
X62476190Y-206785714D01*
X62380952Y-206833333D01*
D12*
X79490000Y-202670000D02*
X79490000Y-205330000D01*
X69270000Y-202670000D02*
X79490000Y-202670000D01*
X69270000Y-205330000D02*
X79490000Y-205330000D01*
X69270000Y-202670000D02*
X69270000Y-205330000D01*
X68000000Y-202670000D02*
X66670000Y-202670000D01*
X66670000Y-202670000D02*
X66670000Y-204000000D01*
X147030000Y-208170000D02*
X147030000Y-210830000D01*
X134270000Y-208170000D02*
X147030000Y-208170000D01*
X134270000Y-210830000D02*
X147030000Y-210830000D01*
X134270000Y-208170000D02*
X134270000Y-210830000D01*
X133000000Y-208170000D02*
X131670000Y-208170000D01*
X131670000Y-208170000D02*
X131670000Y-209500000D01*
X80570000Y-208170000D02*
X80570000Y-210830000D01*
X65270000Y-208170000D02*
X80570000Y-208170000D01*
X65270000Y-210830000D02*
X80570000Y-210830000D01*
X65270000Y-208170000D02*
X65270000Y-210830000D01*
X64000000Y-208170000D02*
X62670000Y-208170000D01*
X62670000Y-208170000D02*
X62670000Y-209500000D01*
X146410000Y-201670000D02*
X146410000Y-204330000D01*
X141270000Y-201670000D02*
X146410000Y-201670000D01*
X141270000Y-204330000D02*
X146410000Y-204330000D01*
X141270000Y-201670000D02*
X141270000Y-204330000D01*
X140000000Y-201670000D02*
X138670000Y-201670000D01*
X138670000Y-201670000D02*
X138670000Y-203000000D01*
M02*
