G04 #@! TF.FileFunction,Legend,Bot*
%FSLAX46Y46*%
G04 Gerber Fmt 4.6, Leading zero omitted, Abs format (unit mm)*
G04 Created by KiCad (PCBNEW 4.0.6) date Thursday, July 05, 2018 'AMt' 01:22:21 AM*
%MOMM*%
%LPD*%
G01*
G04 APERTURE LIST*
%ADD10C,0.100000*%
%ADD11C,0.200000*%
%ADD12C,0.120000*%
G04 APERTURE END LIST*
D10*
D11*
X137142857Y-202952381D02*
X137142857Y-201952381D01*
X137142857Y-202904762D02*
X137238095Y-202952381D01*
X137428572Y-202952381D01*
X137523810Y-202904762D01*
X137571429Y-202857143D01*
X137619048Y-202761905D01*
X137619048Y-202476190D01*
X137571429Y-202380952D01*
X137523810Y-202333333D01*
X137428572Y-202285714D01*
X137238095Y-202285714D01*
X137142857Y-202333333D01*
X136666667Y-202952381D02*
X136666667Y-202285714D01*
X136666667Y-201952381D02*
X136714286Y-202000000D01*
X136666667Y-202047619D01*
X136619048Y-202000000D01*
X136666667Y-201952381D01*
X136666667Y-202047619D01*
X135761905Y-202285714D02*
X135761905Y-203095238D01*
X135809524Y-203190476D01*
X135857143Y-203238095D01*
X135952382Y-203285714D01*
X136095239Y-203285714D01*
X136190477Y-203238095D01*
X135761905Y-202904762D02*
X135857143Y-202952381D01*
X136047620Y-202952381D01*
X136142858Y-202904762D01*
X136190477Y-202857143D01*
X136238096Y-202761905D01*
X136238096Y-202476190D01*
X136190477Y-202380952D01*
X136142858Y-202333333D01*
X136047620Y-202285714D01*
X135857143Y-202285714D01*
X135761905Y-202333333D01*
X135285715Y-202952381D02*
X135285715Y-202285714D01*
X135285715Y-201952381D02*
X135333334Y-202000000D01*
X135285715Y-202047619D01*
X135238096Y-202000000D01*
X135285715Y-201952381D01*
X135285715Y-202047619D01*
X134952382Y-202285714D02*
X134571430Y-202285714D01*
X134809525Y-201952381D02*
X134809525Y-202809524D01*
X134761906Y-202904762D01*
X134666668Y-202952381D01*
X134571430Y-202952381D01*
X133809524Y-202952381D02*
X133809524Y-202428571D01*
X133857143Y-202333333D01*
X133952381Y-202285714D01*
X134142858Y-202285714D01*
X134238096Y-202333333D01*
X133809524Y-202904762D02*
X133904762Y-202952381D01*
X134142858Y-202952381D01*
X134238096Y-202904762D01*
X134285715Y-202809524D01*
X134285715Y-202714286D01*
X134238096Y-202619048D01*
X134142858Y-202571429D01*
X133904762Y-202571429D01*
X133809524Y-202523810D01*
X133190477Y-202952381D02*
X133285715Y-202904762D01*
X133333334Y-202809524D01*
X133333334Y-201952381D01*
X132047619Y-202285714D02*
X132047619Y-203285714D01*
X132047619Y-202333333D02*
X131952381Y-202285714D01*
X131761904Y-202285714D01*
X131666666Y-202333333D01*
X131619047Y-202380952D01*
X131571428Y-202476190D01*
X131571428Y-202761905D01*
X131619047Y-202857143D01*
X131666666Y-202904762D01*
X131761904Y-202952381D01*
X131952381Y-202952381D01*
X132047619Y-202904762D01*
X131142857Y-202952381D02*
X131142857Y-202285714D01*
X131142857Y-201952381D02*
X131190476Y-202000000D01*
X131142857Y-202047619D01*
X131095238Y-202000000D01*
X131142857Y-201952381D01*
X131142857Y-202047619D01*
X130666667Y-202285714D02*
X130666667Y-202952381D01*
X130666667Y-202380952D02*
X130619048Y-202333333D01*
X130523810Y-202285714D01*
X130380952Y-202285714D01*
X130285714Y-202333333D01*
X130238095Y-202428571D01*
X130238095Y-202952381D01*
X129809524Y-202904762D02*
X129714286Y-202952381D01*
X129523810Y-202952381D01*
X129428571Y-202904762D01*
X129380952Y-202809524D01*
X129380952Y-202761905D01*
X129428571Y-202666667D01*
X129523810Y-202619048D01*
X129666667Y-202619048D01*
X129761905Y-202571429D01*
X129809524Y-202476190D01*
X129809524Y-202428571D01*
X129761905Y-202333333D01*
X129666667Y-202285714D01*
X129523810Y-202285714D01*
X129428571Y-202333333D01*
X145714286Y-200452381D02*
X145714286Y-199452381D01*
X145476191Y-199452381D01*
X145333333Y-199500000D01*
X145238095Y-199595238D01*
X145190476Y-199690476D01*
X145142857Y-199880952D01*
X145142857Y-200023810D01*
X145190476Y-200214286D01*
X145238095Y-200309524D01*
X145333333Y-200404762D01*
X145476191Y-200452381D01*
X145714286Y-200452381D01*
X144190476Y-200452381D02*
X144761905Y-200452381D01*
X144476191Y-200452381D02*
X144476191Y-199452381D01*
X144571429Y-199595238D01*
X144666667Y-199690476D01*
X144761905Y-199738095D01*
X143857143Y-199452381D02*
X143238095Y-199452381D01*
X143571429Y-199833333D01*
X143428571Y-199833333D01*
X143333333Y-199880952D01*
X143285714Y-199928571D01*
X143238095Y-200023810D01*
X143238095Y-200261905D01*
X143285714Y-200357143D01*
X143333333Y-200404762D01*
X143428571Y-200452381D01*
X143714286Y-200452381D01*
X143809524Y-200404762D01*
X143857143Y-200357143D01*
X142142857Y-199452381D02*
X142619048Y-199452381D01*
X142666667Y-199928571D01*
X142619048Y-199880952D01*
X142523810Y-199833333D01*
X142285714Y-199833333D01*
X142190476Y-199880952D01*
X142142857Y-199928571D01*
X142095238Y-200023810D01*
X142095238Y-200261905D01*
X142142857Y-200357143D01*
X142190476Y-200404762D01*
X142285714Y-200452381D01*
X142523810Y-200452381D01*
X142619048Y-200404762D01*
X142666667Y-200357143D01*
X141761905Y-199785714D02*
X141523810Y-200452381D01*
X141285714Y-199785714D01*
X140190476Y-199785714D02*
X140190476Y-200595238D01*
X140238095Y-200690476D01*
X140285714Y-200738095D01*
X140380953Y-200785714D01*
X140523810Y-200785714D01*
X140619048Y-200738095D01*
X140190476Y-200404762D02*
X140285714Y-200452381D01*
X140476191Y-200452381D01*
X140571429Y-200404762D01*
X140619048Y-200357143D01*
X140666667Y-200261905D01*
X140666667Y-199976190D01*
X140619048Y-199880952D01*
X140571429Y-199833333D01*
X140476191Y-199785714D01*
X140285714Y-199785714D01*
X140190476Y-199833333D01*
X139714286Y-199785714D02*
X139714286Y-200452381D01*
X139714286Y-199880952D02*
X139666667Y-199833333D01*
X139571429Y-199785714D01*
X139428571Y-199785714D01*
X139333333Y-199833333D01*
X139285714Y-199928571D01*
X139285714Y-200452381D01*
X138380952Y-200452381D02*
X138380952Y-199452381D01*
X138380952Y-200404762D02*
X138476190Y-200452381D01*
X138666667Y-200452381D01*
X138761905Y-200404762D01*
X138809524Y-200357143D01*
X138857143Y-200261905D01*
X138857143Y-199976190D01*
X138809524Y-199880952D01*
X138761905Y-199833333D01*
X138666667Y-199785714D01*
X138476190Y-199785714D01*
X138380952Y-199833333D01*
X130214286Y-209452381D02*
X130214286Y-208785714D01*
X130214286Y-208880952D02*
X130166667Y-208833333D01*
X130071429Y-208785714D01*
X129928571Y-208785714D01*
X129833333Y-208833333D01*
X129785714Y-208928571D01*
X129785714Y-209452381D01*
X129785714Y-208928571D02*
X129738095Y-208833333D01*
X129642857Y-208785714D01*
X129500000Y-208785714D01*
X129404762Y-208833333D01*
X129357143Y-208928571D01*
X129357143Y-209452381D01*
X128452381Y-208785714D02*
X128452381Y-209452381D01*
X128880953Y-208785714D02*
X128880953Y-209309524D01*
X128833334Y-209404762D01*
X128738096Y-209452381D01*
X128595238Y-209452381D01*
X128500000Y-209404762D01*
X128452381Y-209357143D01*
X128071429Y-209452381D02*
X127547619Y-208785714D01*
X128071429Y-208785714D02*
X127547619Y-209452381D01*
X126404762Y-208785714D02*
X126404762Y-209785714D01*
X126404762Y-208833333D02*
X126309524Y-208785714D01*
X126119047Y-208785714D01*
X126023809Y-208833333D01*
X125976190Y-208880952D01*
X125928571Y-208976190D01*
X125928571Y-209261905D01*
X125976190Y-209357143D01*
X126023809Y-209404762D01*
X126119047Y-209452381D01*
X126309524Y-209452381D01*
X126404762Y-209404762D01*
X125500000Y-209452381D02*
X125500000Y-208785714D01*
X125500000Y-208452381D02*
X125547619Y-208500000D01*
X125500000Y-208547619D01*
X125452381Y-208500000D01*
X125500000Y-208452381D01*
X125500000Y-208547619D01*
X125023810Y-208785714D02*
X125023810Y-209452381D01*
X125023810Y-208880952D02*
X124976191Y-208833333D01*
X124880953Y-208785714D01*
X124738095Y-208785714D01*
X124642857Y-208833333D01*
X124595238Y-208928571D01*
X124595238Y-209452381D01*
X124166667Y-209404762D02*
X124071429Y-209452381D01*
X123880953Y-209452381D01*
X123785714Y-209404762D01*
X123738095Y-209309524D01*
X123738095Y-209261905D01*
X123785714Y-209166667D01*
X123880953Y-209119048D01*
X124023810Y-209119048D01*
X124119048Y-209071429D01*
X124166667Y-208976190D01*
X124166667Y-208928571D01*
X124119048Y-208833333D01*
X124023810Y-208785714D01*
X123880953Y-208785714D01*
X123785714Y-208833333D01*
X145690476Y-206952381D02*
X146261905Y-206952381D01*
X145976191Y-206952381D02*
X145976191Y-205952381D01*
X146071429Y-206095238D01*
X146166667Y-206190476D01*
X146261905Y-206238095D01*
X145357143Y-205952381D02*
X144738095Y-205952381D01*
X145071429Y-206333333D01*
X144928571Y-206333333D01*
X144833333Y-206380952D01*
X144785714Y-206428571D01*
X144738095Y-206523810D01*
X144738095Y-206761905D01*
X144785714Y-206857143D01*
X144833333Y-206904762D01*
X144928571Y-206952381D01*
X145214286Y-206952381D01*
X145309524Y-206904762D01*
X145357143Y-206857143D01*
X142690476Y-206952381D02*
X143261905Y-206952381D01*
X142976191Y-206952381D02*
X142976191Y-205952381D01*
X143071429Y-206095238D01*
X143166667Y-206190476D01*
X143261905Y-206238095D01*
X141833333Y-206285714D02*
X141833333Y-206952381D01*
X142071429Y-205904762D02*
X142309524Y-206619048D01*
X141690476Y-206619048D01*
X140190476Y-206952381D02*
X140761905Y-206952381D01*
X140476191Y-206952381D02*
X140476191Y-205952381D01*
X140571429Y-206095238D01*
X140666667Y-206190476D01*
X140761905Y-206238095D01*
X139238095Y-206952381D02*
X139809524Y-206952381D01*
X139523810Y-206952381D02*
X139523810Y-205952381D01*
X139619048Y-206095238D01*
X139714286Y-206190476D01*
X139809524Y-206238095D01*
X137690476Y-206952381D02*
X138261905Y-206952381D01*
X137976191Y-206952381D02*
X137976191Y-205952381D01*
X138071429Y-206095238D01*
X138166667Y-206190476D01*
X138261905Y-206238095D01*
X137071429Y-205952381D02*
X136976190Y-205952381D01*
X136880952Y-206000000D01*
X136833333Y-206047619D01*
X136785714Y-206142857D01*
X136738095Y-206333333D01*
X136738095Y-206571429D01*
X136785714Y-206761905D01*
X136833333Y-206857143D01*
X136880952Y-206904762D01*
X136976190Y-206952381D01*
X137071429Y-206952381D01*
X137166667Y-206904762D01*
X137214286Y-206857143D01*
X137261905Y-206761905D01*
X137309524Y-206571429D01*
X137309524Y-206333333D01*
X137261905Y-206142857D01*
X137214286Y-206047619D01*
X137166667Y-206000000D01*
X137071429Y-205952381D01*
X135142857Y-205952381D02*
X135619048Y-205952381D01*
X135666667Y-206428571D01*
X135619048Y-206380952D01*
X135523810Y-206333333D01*
X135285714Y-206333333D01*
X135190476Y-206380952D01*
X135142857Y-206428571D01*
X135095238Y-206523810D01*
X135095238Y-206761905D01*
X135142857Y-206857143D01*
X135190476Y-206904762D01*
X135285714Y-206952381D01*
X135523810Y-206952381D01*
X135619048Y-206904762D01*
X135666667Y-206857143D01*
X134761905Y-206285714D02*
X134523810Y-206952381D01*
X134285714Y-206285714D01*
X133190476Y-206285714D02*
X133190476Y-207095238D01*
X133238095Y-207190476D01*
X133285714Y-207238095D01*
X133380953Y-207285714D01*
X133523810Y-207285714D01*
X133619048Y-207238095D01*
X133190476Y-206904762D02*
X133285714Y-206952381D01*
X133476191Y-206952381D01*
X133571429Y-206904762D01*
X133619048Y-206857143D01*
X133666667Y-206761905D01*
X133666667Y-206476190D01*
X133619048Y-206380952D01*
X133571429Y-206333333D01*
X133476191Y-206285714D01*
X133285714Y-206285714D01*
X133190476Y-206333333D01*
X132714286Y-206285714D02*
X132714286Y-206952381D01*
X132714286Y-206380952D02*
X132666667Y-206333333D01*
X132571429Y-206285714D01*
X132428571Y-206285714D01*
X132333333Y-206333333D01*
X132285714Y-206428571D01*
X132285714Y-206952381D01*
X131380952Y-206952381D02*
X131380952Y-205952381D01*
X131380952Y-206904762D02*
X131476190Y-206952381D01*
X131666667Y-206952381D01*
X131761905Y-206904762D01*
X131809524Y-206857143D01*
X131857143Y-206761905D01*
X131857143Y-206476190D01*
X131809524Y-206380952D01*
X131761905Y-206333333D01*
X131666667Y-206285714D01*
X131476190Y-206285714D01*
X131380952Y-206333333D01*
X77890476Y-201452381D02*
X77700000Y-201452381D01*
X77604761Y-201404762D01*
X77557142Y-201357143D01*
X77461904Y-201214286D01*
X77414285Y-201023810D01*
X77414285Y-200642857D01*
X77461904Y-200547619D01*
X77509523Y-200500000D01*
X77604761Y-200452381D01*
X77795238Y-200452381D01*
X77890476Y-200500000D01*
X77938095Y-200547619D01*
X77985714Y-200642857D01*
X77985714Y-200880952D01*
X77938095Y-200976190D01*
X77890476Y-201023810D01*
X77795238Y-201071429D01*
X77604761Y-201071429D01*
X77509523Y-201023810D01*
X77461904Y-200976190D01*
X77414285Y-200880952D01*
X75195238Y-200880952D02*
X75290476Y-200833333D01*
X75338095Y-200785714D01*
X75385714Y-200690476D01*
X75385714Y-200642857D01*
X75338095Y-200547619D01*
X75290476Y-200500000D01*
X75195238Y-200452381D01*
X75004761Y-200452381D01*
X74909523Y-200500000D01*
X74861904Y-200547619D01*
X74814285Y-200642857D01*
X74814285Y-200690476D01*
X74861904Y-200785714D01*
X74909523Y-200833333D01*
X75004761Y-200880952D01*
X75195238Y-200880952D01*
X75290476Y-200928571D01*
X75338095Y-200976190D01*
X75385714Y-201071429D01*
X75385714Y-201261905D01*
X75338095Y-201357143D01*
X75290476Y-201404762D01*
X75195238Y-201452381D01*
X75004761Y-201452381D01*
X74909523Y-201404762D01*
X74861904Y-201357143D01*
X74814285Y-201261905D01*
X74814285Y-201071429D01*
X74861904Y-200976190D01*
X74909523Y-200928571D01*
X75004761Y-200880952D01*
X72690476Y-201452381D02*
X73261905Y-201452381D01*
X72976191Y-201452381D02*
X72976191Y-200452381D01*
X73071429Y-200595238D01*
X73166667Y-200690476D01*
X73261905Y-200738095D01*
X71738095Y-201452381D02*
X72309524Y-201452381D01*
X72023810Y-201452381D02*
X72023810Y-200452381D01*
X72119048Y-200595238D01*
X72214286Y-200690476D01*
X72309524Y-200738095D01*
X64942857Y-202952381D02*
X65419048Y-202952381D01*
X65466667Y-203428571D01*
X65419048Y-203380952D01*
X65323810Y-203333333D01*
X65085714Y-203333333D01*
X64990476Y-203380952D01*
X64942857Y-203428571D01*
X64895238Y-203523810D01*
X64895238Y-203761905D01*
X64942857Y-203857143D01*
X64990476Y-203904762D01*
X65085714Y-203952381D01*
X65323810Y-203952381D01*
X65419048Y-203904762D01*
X65466667Y-203857143D01*
X64419048Y-203952381D02*
X64228572Y-203952381D01*
X64133333Y-203904762D01*
X64085714Y-203857143D01*
X63990476Y-203714286D01*
X63942857Y-203523810D01*
X63942857Y-203142857D01*
X63990476Y-203047619D01*
X64038095Y-203000000D01*
X64133333Y-202952381D01*
X64323810Y-202952381D01*
X64419048Y-203000000D01*
X64466667Y-203047619D01*
X64514286Y-203142857D01*
X64514286Y-203380952D01*
X64466667Y-203476190D01*
X64419048Y-203523810D01*
X64323810Y-203571429D01*
X64133333Y-203571429D01*
X64038095Y-203523810D01*
X63990476Y-203476190D01*
X63942857Y-203380952D01*
X63038095Y-202952381D02*
X63514286Y-202952381D01*
X63561905Y-203428571D01*
X63514286Y-203380952D01*
X63419048Y-203333333D01*
X63180952Y-203333333D01*
X63085714Y-203380952D01*
X63038095Y-203428571D01*
X62990476Y-203523810D01*
X62990476Y-203761905D01*
X63038095Y-203857143D01*
X63085714Y-203904762D01*
X63180952Y-203952381D01*
X63419048Y-203952381D01*
X63514286Y-203904762D01*
X63561905Y-203857143D01*
X61800000Y-203285714D02*
X61800000Y-204285714D01*
X61800000Y-203333333D02*
X61704762Y-203285714D01*
X61514285Y-203285714D01*
X61419047Y-203333333D01*
X61371428Y-203380952D01*
X61323809Y-203476190D01*
X61323809Y-203761905D01*
X61371428Y-203857143D01*
X61419047Y-203904762D01*
X61514285Y-203952381D01*
X61704762Y-203952381D01*
X61800000Y-203904762D01*
X60895238Y-203952381D02*
X60895238Y-203285714D01*
X60895238Y-202952381D02*
X60942857Y-203000000D01*
X60895238Y-203047619D01*
X60847619Y-203000000D01*
X60895238Y-202952381D01*
X60895238Y-203047619D01*
X60419048Y-203285714D02*
X60419048Y-203952381D01*
X60419048Y-203380952D02*
X60371429Y-203333333D01*
X60276191Y-203285714D01*
X60133333Y-203285714D01*
X60038095Y-203333333D01*
X59990476Y-203428571D01*
X59990476Y-203952381D01*
X59561905Y-203904762D02*
X59466667Y-203952381D01*
X59276191Y-203952381D01*
X59180952Y-203904762D01*
X59133333Y-203809524D01*
X59133333Y-203761905D01*
X59180952Y-203666667D01*
X59276191Y-203619048D01*
X59419048Y-203619048D01*
X59514286Y-203571429D01*
X59561905Y-203476190D01*
X59561905Y-203428571D01*
X59514286Y-203333333D01*
X59419048Y-203285714D01*
X59276191Y-203285714D01*
X59180952Y-203333333D01*
X88785714Y-209452381D02*
X88785714Y-208928571D01*
X88833333Y-208833333D01*
X88928571Y-208785714D01*
X89119048Y-208785714D01*
X89214286Y-208833333D01*
X88785714Y-209404762D02*
X88880952Y-209452381D01*
X89119048Y-209452381D01*
X89214286Y-209404762D01*
X89261905Y-209309524D01*
X89261905Y-209214286D01*
X89214286Y-209119048D01*
X89119048Y-209071429D01*
X88880952Y-209071429D01*
X88785714Y-209023810D01*
X88309524Y-208785714D02*
X88309524Y-209452381D01*
X88309524Y-208880952D02*
X88261905Y-208833333D01*
X88166667Y-208785714D01*
X88023809Y-208785714D01*
X87928571Y-208833333D01*
X87880952Y-208928571D01*
X87880952Y-209452381D01*
X86976190Y-209452381D02*
X86976190Y-208928571D01*
X87023809Y-208833333D01*
X87119047Y-208785714D01*
X87309524Y-208785714D01*
X87404762Y-208833333D01*
X86976190Y-209404762D02*
X87071428Y-209452381D01*
X87309524Y-209452381D01*
X87404762Y-209404762D01*
X87452381Y-209309524D01*
X87452381Y-209214286D01*
X87404762Y-209119048D01*
X87309524Y-209071429D01*
X87071428Y-209071429D01*
X86976190Y-209023810D01*
X86357143Y-209452381D02*
X86452381Y-209404762D01*
X86500000Y-209309524D01*
X86500000Y-208452381D01*
X85833333Y-209452381D02*
X85928571Y-209404762D01*
X85976190Y-209357143D01*
X86023809Y-209261905D01*
X86023809Y-208976190D01*
X85976190Y-208880952D01*
X85928571Y-208833333D01*
X85833333Y-208785714D01*
X85690475Y-208785714D01*
X85595237Y-208833333D01*
X85547618Y-208880952D01*
X85499999Y-208976190D01*
X85499999Y-209261905D01*
X85547618Y-209357143D01*
X85595237Y-209404762D01*
X85690475Y-209452381D01*
X85833333Y-209452381D01*
X84642856Y-208785714D02*
X84642856Y-209595238D01*
X84690475Y-209690476D01*
X84738094Y-209738095D01*
X84833333Y-209785714D01*
X84976190Y-209785714D01*
X85071428Y-209738095D01*
X84642856Y-209404762D02*
X84738094Y-209452381D01*
X84928571Y-209452381D01*
X85023809Y-209404762D01*
X85071428Y-209357143D01*
X85119047Y-209261905D01*
X85119047Y-208976190D01*
X85071428Y-208880952D01*
X85023809Y-208833333D01*
X84928571Y-208785714D01*
X84738094Y-208785714D01*
X84642856Y-208833333D01*
X83404761Y-208785714D02*
X83404761Y-209785714D01*
X83404761Y-208833333D02*
X83309523Y-208785714D01*
X83119046Y-208785714D01*
X83023808Y-208833333D01*
X82976189Y-208880952D01*
X82928570Y-208976190D01*
X82928570Y-209261905D01*
X82976189Y-209357143D01*
X83023808Y-209404762D01*
X83119046Y-209452381D01*
X83309523Y-209452381D01*
X83404761Y-209404762D01*
X82499999Y-209452381D02*
X82499999Y-208785714D01*
X82499999Y-208452381D02*
X82547618Y-208500000D01*
X82499999Y-208547619D01*
X82452380Y-208500000D01*
X82499999Y-208452381D01*
X82499999Y-208547619D01*
X82023809Y-208785714D02*
X82023809Y-209452381D01*
X82023809Y-208880952D02*
X81976190Y-208833333D01*
X81880952Y-208785714D01*
X81738094Y-208785714D01*
X81642856Y-208833333D01*
X81595237Y-208928571D01*
X81595237Y-209452381D01*
X81166666Y-209404762D02*
X81071428Y-209452381D01*
X80880952Y-209452381D01*
X80785713Y-209404762D01*
X80738094Y-209309524D01*
X80738094Y-209261905D01*
X80785713Y-209166667D01*
X80880952Y-209119048D01*
X81023809Y-209119048D01*
X81119047Y-209071429D01*
X81166666Y-208976190D01*
X81166666Y-208928571D01*
X81119047Y-208833333D01*
X81023809Y-208785714D01*
X80880952Y-208785714D01*
X80785713Y-208833333D01*
X70142857Y-200452381D02*
X70619048Y-200452381D01*
X70666667Y-200928571D01*
X70619048Y-200880952D01*
X70523810Y-200833333D01*
X70285714Y-200833333D01*
X70190476Y-200880952D01*
X70142857Y-200928571D01*
X70095238Y-201023810D01*
X70095238Y-201261905D01*
X70142857Y-201357143D01*
X70190476Y-201404762D01*
X70285714Y-201452381D01*
X70523810Y-201452381D01*
X70619048Y-201404762D01*
X70666667Y-201357143D01*
X69761905Y-200785714D02*
X69523810Y-201452381D01*
X69285714Y-200785714D01*
X68190476Y-200785714D02*
X68190476Y-201595238D01*
X68238095Y-201690476D01*
X68285714Y-201738095D01*
X68380953Y-201785714D01*
X68523810Y-201785714D01*
X68619048Y-201738095D01*
X68190476Y-201404762D02*
X68285714Y-201452381D01*
X68476191Y-201452381D01*
X68571429Y-201404762D01*
X68619048Y-201357143D01*
X68666667Y-201261905D01*
X68666667Y-200976190D01*
X68619048Y-200880952D01*
X68571429Y-200833333D01*
X68476191Y-200785714D01*
X68285714Y-200785714D01*
X68190476Y-200833333D01*
X67714286Y-200785714D02*
X67714286Y-201452381D01*
X67714286Y-200880952D02*
X67666667Y-200833333D01*
X67571429Y-200785714D01*
X67428571Y-200785714D01*
X67333333Y-200833333D01*
X67285714Y-200928571D01*
X67285714Y-201452381D01*
X66380952Y-201452381D02*
X66380952Y-200452381D01*
X66380952Y-201404762D02*
X66476190Y-201452381D01*
X66666667Y-201452381D01*
X66761905Y-201404762D01*
X66809524Y-201357143D01*
X66857143Y-201261905D01*
X66857143Y-200976190D01*
X66809524Y-200880952D01*
X66761905Y-200833333D01*
X66666667Y-200785714D01*
X66476190Y-200785714D01*
X66380952Y-200833333D01*
X79214286Y-206666667D02*
X78738095Y-206666667D01*
X79309524Y-206952381D02*
X78976191Y-205952381D01*
X78642857Y-206952381D01*
X77833333Y-205952381D02*
X78309524Y-205952381D01*
X78357143Y-206428571D01*
X78309524Y-206380952D01*
X78214286Y-206333333D01*
X77976190Y-206333333D01*
X77880952Y-206380952D01*
X77833333Y-206428571D01*
X77785714Y-206523810D01*
X77785714Y-206761905D01*
X77833333Y-206857143D01*
X77880952Y-206904762D01*
X77976190Y-206952381D01*
X78214286Y-206952381D01*
X78309524Y-206904762D01*
X78357143Y-206857143D01*
X76714286Y-206666667D02*
X76238095Y-206666667D01*
X76809524Y-206952381D02*
X76476191Y-205952381D01*
X76142857Y-206952381D01*
X75380952Y-206285714D02*
X75380952Y-206952381D01*
X75619048Y-205904762D02*
X75857143Y-206619048D01*
X75238095Y-206619048D01*
X74214286Y-206666667D02*
X73738095Y-206666667D01*
X74309524Y-206952381D02*
X73976191Y-205952381D01*
X73642857Y-206952381D01*
X73404762Y-205952381D02*
X72785714Y-205952381D01*
X73119048Y-206333333D01*
X72976190Y-206333333D01*
X72880952Y-206380952D01*
X72833333Y-206428571D01*
X72785714Y-206523810D01*
X72785714Y-206761905D01*
X72833333Y-206857143D01*
X72880952Y-206904762D01*
X72976190Y-206952381D01*
X73261905Y-206952381D01*
X73357143Y-206904762D01*
X73404762Y-206857143D01*
X71714286Y-206666667D02*
X71238095Y-206666667D01*
X71809524Y-206952381D02*
X71476191Y-205952381D01*
X71142857Y-206952381D01*
X70857143Y-206047619D02*
X70809524Y-206000000D01*
X70714286Y-205952381D01*
X70476190Y-205952381D01*
X70380952Y-206000000D01*
X70333333Y-206047619D01*
X70285714Y-206142857D01*
X70285714Y-206238095D01*
X70333333Y-206380952D01*
X70904762Y-206952381D01*
X70285714Y-206952381D01*
X69428571Y-206285714D02*
X69190476Y-206952381D01*
X68952380Y-206285714D01*
X68571428Y-206952381D02*
X68571428Y-206285714D01*
X68571428Y-205952381D02*
X68619047Y-206000000D01*
X68571428Y-206047619D01*
X68523809Y-206000000D01*
X68571428Y-205952381D01*
X68571428Y-206047619D01*
X68095238Y-206285714D02*
X68095238Y-206952381D01*
X68095238Y-206380952D02*
X68047619Y-206333333D01*
X67952381Y-206285714D01*
X67809523Y-206285714D01*
X67714285Y-206333333D01*
X67666666Y-206428571D01*
X67666666Y-206952381D01*
X66142857Y-205952381D02*
X66619048Y-205952381D01*
X66666667Y-206428571D01*
X66619048Y-206380952D01*
X66523810Y-206333333D01*
X66285714Y-206333333D01*
X66190476Y-206380952D01*
X66142857Y-206428571D01*
X66095238Y-206523810D01*
X66095238Y-206761905D01*
X66142857Y-206857143D01*
X66190476Y-206904762D01*
X66285714Y-206952381D01*
X66523810Y-206952381D01*
X66619048Y-206904762D01*
X66666667Y-206857143D01*
X65761905Y-206285714D02*
X65523810Y-206952381D01*
X65285714Y-206285714D01*
X63690476Y-206285714D02*
X63690476Y-207095238D01*
X63738095Y-207190476D01*
X63785714Y-207238095D01*
X63880953Y-207285714D01*
X64023810Y-207285714D01*
X64119048Y-207238095D01*
X63690476Y-206904762D02*
X63785714Y-206952381D01*
X63976191Y-206952381D01*
X64071429Y-206904762D01*
X64119048Y-206857143D01*
X64166667Y-206761905D01*
X64166667Y-206476190D01*
X64119048Y-206380952D01*
X64071429Y-206333333D01*
X63976191Y-206285714D01*
X63785714Y-206285714D01*
X63690476Y-206333333D01*
X63214286Y-206285714D02*
X63214286Y-206952381D01*
X63214286Y-206380952D02*
X63166667Y-206333333D01*
X63071429Y-206285714D01*
X62928571Y-206285714D01*
X62833333Y-206333333D01*
X62785714Y-206428571D01*
X62785714Y-206952381D01*
X61880952Y-206952381D02*
X61880952Y-205952381D01*
X61880952Y-206904762D02*
X61976190Y-206952381D01*
X62166667Y-206952381D01*
X62261905Y-206904762D01*
X62309524Y-206857143D01*
X62357143Y-206761905D01*
X62357143Y-206476190D01*
X62309524Y-206380952D01*
X62261905Y-206333333D01*
X62166667Y-206285714D01*
X61976190Y-206285714D01*
X61880952Y-206333333D01*
D12*
X78990000Y-202170000D02*
X78990000Y-204830000D01*
X68770000Y-202170000D02*
X78990000Y-202170000D01*
X68770000Y-204830000D02*
X78990000Y-204830000D01*
X68770000Y-202170000D02*
X68770000Y-204830000D01*
X67500000Y-202170000D02*
X66170000Y-202170000D01*
X66170000Y-202170000D02*
X66170000Y-203500000D01*
X146530000Y-207670000D02*
X146530000Y-210330000D01*
X133770000Y-207670000D02*
X146530000Y-207670000D01*
X133770000Y-210330000D02*
X146530000Y-210330000D01*
X133770000Y-207670000D02*
X133770000Y-210330000D01*
X132500000Y-207670000D02*
X131170000Y-207670000D01*
X131170000Y-207670000D02*
X131170000Y-209000000D01*
X80070000Y-207670000D02*
X80070000Y-210330000D01*
X64770000Y-207670000D02*
X80070000Y-207670000D01*
X64770000Y-210330000D02*
X80070000Y-210330000D01*
X64770000Y-207670000D02*
X64770000Y-210330000D01*
X63500000Y-207670000D02*
X62170000Y-207670000D01*
X62170000Y-207670000D02*
X62170000Y-209000000D01*
X145910000Y-201170000D02*
X145910000Y-203830000D01*
X140770000Y-201170000D02*
X145910000Y-201170000D01*
X140770000Y-203830000D02*
X145910000Y-203830000D01*
X140770000Y-201170000D02*
X140770000Y-203830000D01*
X139500000Y-201170000D02*
X138170000Y-201170000D01*
X138170000Y-201170000D02*
X138170000Y-202500000D01*
M02*
