G04 #@! TF.FileFunction,Soldermask,Bot*
%FSLAX46Y46*%
G04 Gerber Fmt 4.6, Leading zero omitted, Abs format (unit mm)*
G04 Created by KiCad (PCBNEW 4.0.6) date Thursday, July 05, 2018 'AMt' 01:22:21 AM*
%MOMM*%
%LPD*%
G01*
G04 APERTURE LIST*
%ADD10C,0.100000*%
%ADD11C,2.398980*%
%ADD12C,3.600000*%
%ADD13C,4.464000*%
%ADD14R,2.400000X2.400000*%
%ADD15C,2.400000*%
%ADD16O,2.940000X1.924000*%
%ADD17C,2.647900*%
%ADD18O,3.041600X1.720800*%
%ADD19C,3.400000*%
%ADD20R,2.100000X2.100000*%
%ADD21O,2.100000X2.100000*%
G04 APERTURE END LIST*
D10*
D11*
X127550000Y-68500000D03*
X121350000Y-68500000D03*
X127550000Y-64500000D03*
X121350000Y-64500000D03*
X127350000Y-115250000D03*
X121150000Y-115250000D03*
X127350000Y-111250000D03*
X121150000Y-111250000D03*
D12*
X148500000Y-5250000D03*
D11*
X143250000Y-12250000D03*
X145750000Y-12250000D03*
X140750000Y-12250000D03*
D12*
X138000000Y-5250000D03*
D11*
X100740000Y-123610000D03*
X100740000Y-126150000D03*
X100740000Y-128690000D03*
X100740000Y-131230000D03*
X100740000Y-133770000D03*
X100740000Y-136310000D03*
X100740000Y-138850000D03*
X100740000Y-141390000D03*
X108760000Y-141390000D03*
X108760000Y-138850000D03*
X108760000Y-136310000D03*
X108760000Y-133770000D03*
X108760000Y-131230000D03*
X108760000Y-128690000D03*
X108760000Y-126150000D03*
X108760000Y-123610000D03*
D13*
X57900000Y-99200000D03*
X150100000Y-99200000D03*
X57750000Y-209000000D03*
X151250000Y-209000000D03*
X151250000Y2250000D03*
D14*
X67750000Y-135750000D03*
D15*
X65210000Y-135750000D03*
D14*
X86550000Y-146100000D03*
D15*
X84010000Y-146100000D03*
D14*
X86500000Y-121500000D03*
D15*
X83960000Y-121500000D03*
D14*
X86750000Y-98250000D03*
D15*
X84210000Y-98250000D03*
D14*
X86750000Y-74250000D03*
D15*
X84210000Y-74250000D03*
D14*
X105900000Y-1750000D03*
D15*
X103360000Y-1750000D03*
D14*
X142000000Y-135600000D03*
D15*
X144540000Y-135600000D03*
D14*
X122600000Y-146000000D03*
D15*
X125140000Y-146000000D03*
D14*
X122600000Y-121400000D03*
D15*
X125140000Y-121400000D03*
D14*
X122600000Y-97500000D03*
D15*
X125140000Y-97500000D03*
D14*
X122600000Y-74000000D03*
D15*
X125140000Y-74000000D03*
D11*
X59500000Y-126750000D03*
X59500000Y-134370000D03*
X80250000Y-153250000D03*
X80250000Y-145630000D03*
X80250000Y-128250000D03*
X80250000Y-120630000D03*
X80250000Y-104250000D03*
X80250000Y-96630000D03*
X80250000Y-80750000D03*
X80250000Y-73130000D03*
X99400000Y-7000000D03*
X99400000Y620000D03*
X149250000Y-126750000D03*
X149250000Y-134370000D03*
X129450000Y-153250000D03*
X129450000Y-145630000D03*
X129450000Y-128250000D03*
X129450000Y-120630000D03*
X129450000Y-104250000D03*
X129450000Y-96630000D03*
X129450000Y-80750000D03*
X129450000Y-73130000D03*
X95250000Y-190250000D03*
X87630000Y-190250000D03*
X95250000Y-185250000D03*
X87630000Y-185250000D03*
X95250000Y-180250000D03*
X87630000Y-180250000D03*
X95250000Y-175250000D03*
X87630000Y-175250000D03*
X95250000Y-170250000D03*
X87630000Y-170250000D03*
X95250000Y-165250000D03*
X87630000Y-165250000D03*
X95250000Y-160250000D03*
X87630000Y-160250000D03*
X114750000Y-190250000D03*
X122370000Y-190250000D03*
X114750000Y-185250000D03*
X122370000Y-185250000D03*
X114750000Y-180250000D03*
X122370000Y-180250000D03*
X114750000Y-175250000D03*
X122370000Y-175250000D03*
X114750000Y-170250000D03*
X122370000Y-170250000D03*
X114750000Y-165250000D03*
X122370000Y-165250000D03*
X114750000Y-160250000D03*
X122370000Y-160250000D03*
D16*
X80390000Y-58500000D03*
X80390000Y-55960000D03*
X80390000Y-53420000D03*
X80390000Y-45800000D03*
X80390000Y-48340000D03*
X80390000Y-50880000D03*
X80390000Y-40720000D03*
X80390000Y-38180000D03*
X80390000Y-35640000D03*
X80390000Y-30560000D03*
X80390000Y-28020000D03*
X128650000Y-58500000D03*
X128650000Y-55960000D03*
X128650000Y-53420000D03*
X128650000Y-50880000D03*
X128650000Y-48340000D03*
X128650000Y-45800000D03*
X128650000Y-43260000D03*
X128650000Y-40720000D03*
X128650000Y-36656000D03*
X128650000Y-34116000D03*
X128650000Y-31576000D03*
X128650000Y-29036000D03*
X128650000Y-26496000D03*
X128650000Y-23956000D03*
X128650000Y-21416000D03*
X128650000Y-18876000D03*
X80390000Y-33100000D03*
D14*
X101250000Y-190250000D03*
D15*
X98710000Y-190250000D03*
D14*
X101250000Y-185250000D03*
D15*
X98710000Y-185250000D03*
D14*
X101250000Y-180250000D03*
D15*
X98710000Y-180250000D03*
D14*
X101250000Y-175250000D03*
D15*
X98710000Y-175250000D03*
D14*
X101250000Y-170250000D03*
D15*
X98710000Y-170250000D03*
D14*
X101250000Y-165250000D03*
D15*
X98710000Y-165250000D03*
D14*
X101250000Y-160250000D03*
D15*
X98710000Y-160250000D03*
D14*
X108750000Y-190250000D03*
D15*
X111290000Y-190250000D03*
D14*
X108750000Y-185250000D03*
D15*
X111290000Y-185250000D03*
D14*
X108750000Y-180250000D03*
D15*
X111290000Y-180250000D03*
D14*
X108750000Y-175250000D03*
D15*
X111290000Y-175250000D03*
D14*
X108750000Y-170250000D03*
D15*
X111290000Y-170250000D03*
D14*
X108750000Y-165250000D03*
D15*
X111290000Y-165250000D03*
D14*
X108750000Y-160250000D03*
D15*
X111290000Y-160250000D03*
D13*
X57750000Y2250000D03*
D17*
X144498980Y-145752520D03*
X144498980Y-189247480D03*
X140501020Y-189247480D03*
X126247480Y-206498980D03*
X82752520Y-206498980D03*
X82752520Y-202501020D03*
X67498980Y-145752520D03*
X67498980Y-189247480D03*
X63501020Y-189247480D03*
D11*
X127240000Y-165360000D03*
X127240000Y-167900000D03*
X127240000Y-170440000D03*
X127240000Y-172980000D03*
X127240000Y-175520000D03*
X127240000Y-178060000D03*
X127240000Y-180600000D03*
X127240000Y-183140000D03*
X135260000Y-183140000D03*
X135260000Y-180600000D03*
X135260000Y-178060000D03*
X135260000Y-175520000D03*
X135260000Y-172980000D03*
X135260000Y-170440000D03*
X135260000Y-167900000D03*
X135260000Y-165360000D03*
X82760000Y-183140000D03*
X82760000Y-180600000D03*
X82760000Y-178060000D03*
X82760000Y-175520000D03*
X82760000Y-172980000D03*
X82760000Y-170440000D03*
X82760000Y-167900000D03*
X82760000Y-165360000D03*
X74740000Y-165360000D03*
X74740000Y-167900000D03*
X74740000Y-170440000D03*
X74740000Y-172980000D03*
X74740000Y-175520000D03*
X74740000Y-178060000D03*
X74740000Y-180600000D03*
X74740000Y-183140000D03*
D18*
X96980000Y-92330000D03*
X96980000Y-94870000D03*
X96980000Y-97410000D03*
X96980000Y-99950000D03*
X96980000Y-102490000D03*
X96980000Y-105030000D03*
X96980000Y-107570000D03*
X96980000Y-110110000D03*
X96980000Y-112650000D03*
X96980000Y-115190000D03*
X96980000Y-117730000D03*
X96980000Y-120270000D03*
X112420000Y-120270000D03*
X112420000Y-117730000D03*
X112420000Y-115190000D03*
X112420000Y-112650000D03*
X112420000Y-110110000D03*
X112420000Y-107570000D03*
X112420000Y-105030000D03*
X112420000Y-102490000D03*
X112420000Y-99950000D03*
X112420000Y-97410000D03*
X112420000Y-94870000D03*
X112420000Y-92330000D03*
X96980000Y-60330000D03*
X96980000Y-62870000D03*
X96980000Y-65410000D03*
X96980000Y-67950000D03*
X96980000Y-70490000D03*
X96980000Y-73030000D03*
X96980000Y-75570000D03*
X96980000Y-78110000D03*
X96980000Y-80650000D03*
X96980000Y-83190000D03*
X96980000Y-85730000D03*
X96980000Y-88270000D03*
X112420000Y-88270000D03*
X112420000Y-85730000D03*
X112420000Y-83190000D03*
X112420000Y-80650000D03*
X112420000Y-78110000D03*
X112420000Y-75570000D03*
X112420000Y-73030000D03*
X112420000Y-70490000D03*
X112420000Y-67950000D03*
X112420000Y-65410000D03*
X112420000Y-62870000D03*
X112420000Y-60330000D03*
D12*
X71500000Y-5250000D03*
D11*
X66250000Y-12250000D03*
X68750000Y-12250000D03*
X63750000Y-12250000D03*
D12*
X61000000Y-5250000D03*
X71500000Y-31250000D03*
D11*
X66250000Y-38250000D03*
X68750000Y-38250000D03*
X63750000Y-38250000D03*
D12*
X61000000Y-31250000D03*
X71500000Y-57250000D03*
D11*
X66250000Y-64250000D03*
X68750000Y-64250000D03*
X63750000Y-64250000D03*
D12*
X61000000Y-57250000D03*
X71500000Y-83250000D03*
D11*
X66250000Y-90250000D03*
X68750000Y-90250000D03*
X63750000Y-90250000D03*
D12*
X61000000Y-83250000D03*
X71500000Y-109250000D03*
D11*
X66250000Y-116250000D03*
X68750000Y-116250000D03*
X63750000Y-116250000D03*
D12*
X61000000Y-109250000D03*
X110250000Y-149000000D03*
D11*
X105000000Y-156000000D03*
X107500000Y-156000000D03*
X102500000Y-156000000D03*
D12*
X99750000Y-149000000D03*
X148500000Y-109250000D03*
D11*
X143250000Y-116250000D03*
X145750000Y-116250000D03*
X140750000Y-116250000D03*
D12*
X138000000Y-109250000D03*
X148500000Y-83250000D03*
D11*
X143250000Y-90250000D03*
X145750000Y-90250000D03*
X140750000Y-90250000D03*
D12*
X138000000Y-83250000D03*
X148500000Y-57250000D03*
D11*
X143250000Y-64250000D03*
X145750000Y-64250000D03*
X140750000Y-64250000D03*
D12*
X138000000Y-57250000D03*
X148500000Y-31250000D03*
D11*
X143250000Y-38250000D03*
X145750000Y-38250000D03*
X140750000Y-38250000D03*
D12*
X138000000Y-31250000D03*
D11*
X92250000Y-42250000D03*
X86050000Y-42250000D03*
X92250000Y-38250000D03*
X86050000Y-38250000D03*
X107750000Y-53500000D03*
X101550000Y-53500000D03*
X107750000Y-49500000D03*
X101550000Y-49500000D03*
X123400000Y-42250000D03*
X117200000Y-42250000D03*
X123400000Y-38250000D03*
X117200000Y-38250000D03*
X88350000Y-68500000D03*
X82150000Y-68500000D03*
X88350000Y-64500000D03*
X82150000Y-64500000D03*
X88350000Y-91250000D03*
X82150000Y-91250000D03*
X88350000Y-87250000D03*
X82150000Y-87250000D03*
X88350000Y-115250000D03*
X82150000Y-115250000D03*
X88350000Y-111250000D03*
X82150000Y-111250000D03*
X88350000Y-140250000D03*
X82150000Y-140250000D03*
X88350000Y-136250000D03*
X82150000Y-136250000D03*
X69600000Y-130750000D03*
X63400000Y-130750000D03*
X69600000Y-126750000D03*
X63400000Y-126750000D03*
X127350000Y-140250000D03*
X121150000Y-140250000D03*
X127350000Y-136250000D03*
X121150000Y-136250000D03*
X146250000Y-130700000D03*
X140050000Y-130700000D03*
X146250000Y-126700000D03*
X140050000Y-126700000D03*
X127350000Y-91250000D03*
X121150000Y-91250000D03*
X127350000Y-87250000D03*
X121150000Y-87250000D03*
X102150000Y-26750000D03*
X102150000Y-41250000D03*
X104650000Y-41250000D03*
X107150000Y-41250000D03*
X107150000Y-26750000D03*
D19*
X110250000Y-33750000D03*
D12*
X99050000Y-33750000D03*
D20*
X67500000Y-203500000D03*
D21*
X70040000Y-203500000D03*
X72580000Y-203500000D03*
X75120000Y-203500000D03*
X77660000Y-203500000D03*
D20*
X132500000Y-209000000D03*
D21*
X135040000Y-209000000D03*
X137580000Y-209000000D03*
X140120000Y-209000000D03*
X142660000Y-209000000D03*
X145200000Y-209000000D03*
D20*
X63500000Y-209000000D03*
D21*
X66040000Y-209000000D03*
X68580000Y-209000000D03*
X71120000Y-209000000D03*
X73660000Y-209000000D03*
X76200000Y-209000000D03*
X78740000Y-209000000D03*
D20*
X139500000Y-202500000D03*
D21*
X142040000Y-202500000D03*
X144580000Y-202500000D03*
M02*
