M48
;DRILL file {KiCad 4.0.6} date Thursday, July 05, 2018 'AMt' 01:22:26 AM
;FORMAT={-:-/ absolute / metric / decimal}
FMAT,2
METRIC,TZ
T1C0.400
T2C0.813
T3C1.000
T4C1.001
T5C1.016
T6C1.200
T7C1.499
T8C2.200
T9C2.300
T10C3.200
%
G90
G05
M71
T1
X57.25Y-197.25
X58.29Y-138.95
X58.62Y-174.13
X59.62Y-173.2
X60.25Y-197.
X60.41Y-177.2
X60.45Y-137.45
X60.71Y-66.56
X61.47Y-196.21
X61.72Y-177.31
X62.1Y-170.9
X62.59Y-139.65
X62.64Y-200.34
X63.45Y-137.65
X63.75Y-121.75
X64.82Y-196.36
X68.13Y-72.31
X68.45Y-100.05
X69.85Y-99.02
X70.19Y-68.4
X70.65Y-101.45
X71.45Y-196.05
X71.45Y-200.25
X71.85Y-113.65
X72.4Y-44.97
X72.65Y-115.25
X72.78Y-41.66
X73.68Y-196.84
X74.27Y-133.56
X74.44Y-130.82
X74.52Y-105.09
X74.52Y-113.72
X74.71Y-111.48
X75.25Y-196.7
X77.17Y-91.76
X79.44Y-196.25
X85.Y-111.75
X85.23Y-69.72
X85.38Y-67.58
X86.5Y-127.
X86.75Y-49.
X88.85Y-125.25
X90.25Y-79.5
X90.5Y-46.75
X90.75Y-69.75
X91.16Y-120.32
X91.5Y-79.25
X93.25Y-47.05
X93.55Y-139.35
X93.55Y-142.75
X94.Y-124.32
X94.53Y-131.34
X95.87Y-151.16
X95.87Y-154.81
X96.25Y-47.65
X97.5Y-152.
X97.5Y-154.
X102.75Y-82.35
X103.45Y-84.85
X103.65Y-86.45
X103.74Y-161.08
X103.75Y-135.5
X103.75Y-140.
X103.75Y-144.
X104.05Y-159.18
X105.05Y-196.05
X105.05Y-200.45
X105.5Y-87.5
X105.5Y-89.25
X105.75Y-54.25
X105.75Y-143.75
X105.95Y-92.05
X106.Y-57.75
X106.07Y-158.45
X106.52Y-161.46
X112.Y-134.
X113.5Y-135.
X113.61Y-155.24
X113.94Y-140.04
X114.05Y-50.85
X114.05Y-52.25
X114.22Y-142.16
X114.56Y-151.38
X114.85Y-56.15
X115.32Y-155.6
X115.59Y-152.01
X115.74Y-131.48
X116.47Y-135.59
X116.81Y-133.5
X117.Y-154.25
X118.5Y-120.5
X118.65Y-83.05
X119.Y-156.
X120.Y-120.25
X120.Y-153.5
X120.05Y-100.45
X120.25Y-28.75
X120.45Y-56.15
X120.85Y-117.47
X121.25Y-153.5
X122.04Y-128.47
X122.5Y-28.75
X123.Y-76.75
X123.75Y-55.25
X124.05Y-48.65
X125.75Y-55.25
X126.75Y-76.75
X130.05Y-101.25
X132.66Y-195.29
X132.85Y-49.79
X132.89Y-79.09
X133.11Y-112.32
X133.16Y-103.49
X133.33Y-139.42
X133.88Y-119.06
X134.22Y-132.16
X134.73Y-195.47
X135.21Y-128.96
X135.25Y-130.25
X135.25Y-132.
X136.05Y-130.45
X136.05Y-132.05
X136.8Y-129.81
X136.85Y-121.65
X136.96Y-132.44
X140.7Y-168.1
X143.25Y-54.95
X143.25Y-102.75
X143.56Y-140.65
X143.78Y-196.77
X145.51Y-141.27
X146.69Y-177.42
X146.74Y-172.39
X147.95Y-196.11
X147.97Y-177.2
X149.26Y-173.73
X149.65Y-137.86
X149.79Y-201.41
X150.6Y-200.65
X152.Y-201.
X152.55Y-27.25
X152.93Y-202.33
X152.95Y-138.55
X153.35Y-26.15
X153.46Y-139.67
X153.8Y-127.7
X153.95Y-33.75
T2
X74.74Y-165.36
X74.74Y-167.9
X74.74Y-170.44
X74.74Y-172.98
X74.74Y-175.52
X74.74Y-178.06
X74.74Y-180.6
X74.74Y-183.14
X82.76Y-165.36
X82.76Y-167.9
X82.76Y-170.44
X82.76Y-172.98
X82.76Y-175.52
X82.76Y-178.06
X82.76Y-180.6
X82.76Y-183.14
X96.98Y-60.33
X96.98Y-62.87
X96.98Y-65.41
X96.98Y-67.95
X96.98Y-70.49
X96.98Y-73.03
X96.98Y-75.57
X96.98Y-78.11
X96.98Y-80.65
X96.98Y-83.19
X96.98Y-85.73
X96.98Y-88.27
X96.98Y-92.33
X96.98Y-94.87
X96.98Y-97.41
X96.98Y-99.95
X96.98Y-102.49
X96.98Y-105.03
X96.98Y-107.57
X96.98Y-110.11
X96.98Y-112.65
X96.98Y-115.19
X96.98Y-117.73
X96.98Y-120.27
X100.74Y-123.61
X100.74Y-126.15
X100.74Y-128.69
X100.74Y-131.23
X100.74Y-133.77
X100.74Y-136.31
X100.74Y-138.85
X100.74Y-141.39
X108.76Y-123.61
X108.76Y-126.15
X108.76Y-128.69
X108.76Y-131.23
X108.76Y-133.77
X108.76Y-136.31
X108.76Y-138.85
X108.76Y-141.39
X112.42Y-60.33
X112.42Y-62.87
X112.42Y-65.41
X112.42Y-67.95
X112.42Y-70.49
X112.42Y-73.03
X112.42Y-75.57
X112.42Y-78.11
X112.42Y-80.65
X112.42Y-83.19
X112.42Y-85.73
X112.42Y-88.27
X112.42Y-92.33
X112.42Y-94.87
X112.42Y-97.41
X112.42Y-99.95
X112.42Y-102.49
X112.42Y-105.03
X112.42Y-107.57
X112.42Y-110.11
X112.42Y-112.65
X112.42Y-115.19
X112.42Y-117.73
X112.42Y-120.27
X127.24Y-165.36
X127.24Y-167.9
X127.24Y-170.44
X127.24Y-172.98
X127.24Y-175.52
X127.24Y-178.06
X127.24Y-180.6
X127.24Y-183.14
X135.26Y-165.36
X135.26Y-167.9
X135.26Y-170.44
X135.26Y-172.98
X135.26Y-175.52
X135.26Y-178.06
X135.26Y-180.6
X135.26Y-183.14
T3
X63.4Y-126.75
X63.4Y-130.75
X63.5Y-209.
X66.04Y-209.
X67.5Y-203.5
X68.58Y-209.
X69.6Y-126.75
X69.6Y-130.75
X70.04Y-203.5
X71.12Y-209.
X72.58Y-203.5
X73.66Y-209.
X75.12Y-203.5
X76.2Y-209.
X77.66Y-203.5
X78.74Y-209.
X82.15Y-64.5
X82.15Y-68.5
X82.15Y-87.25
X82.15Y-91.25
X82.15Y-111.25
X82.15Y-115.25
X82.15Y-136.25
X82.15Y-140.25
X86.05Y-38.25
X86.05Y-42.25
X88.35Y-64.5
X88.35Y-68.5
X88.35Y-87.25
X88.35Y-91.25
X88.35Y-111.25
X88.35Y-115.25
X88.35Y-136.25
X88.35Y-140.25
X92.25Y-38.25
X92.25Y-42.25
X101.55Y-49.5
X101.55Y-53.5
X102.15Y-26.75
X102.15Y-41.25
X104.65Y-41.25
X107.15Y-26.75
X107.15Y-41.25
X107.75Y-49.5
X107.75Y-53.5
X117.2Y-38.25
X117.2Y-42.25
X121.15Y-87.25
X121.15Y-91.25
X121.15Y-111.25
X121.15Y-115.25
X121.15Y-136.25
X121.15Y-140.25
X121.35Y-64.5
X121.35Y-68.5
X123.4Y-38.25
X123.4Y-42.25
X127.35Y-87.25
X127.35Y-91.25
X127.35Y-111.25
X127.35Y-115.25
X127.35Y-136.25
X127.35Y-140.25
X127.55Y-64.5
X127.55Y-68.5
X132.5Y-209.
X135.04Y-209.
X137.58Y-209.
X139.5Y-202.5
X140.05Y-126.7
X140.05Y-130.7
X140.12Y-209.
X142.04Y-202.5
X142.66Y-209.
X144.58Y-202.5
X145.2Y-209.
X146.25Y-126.7
X146.25Y-130.7
T4
X59.5Y-126.75
X59.5Y-134.37
X65.21Y-135.75
X67.75Y-135.75
X80.25Y-73.13
X80.25Y-80.75
X80.25Y-96.63
X80.25Y-104.25
X80.25Y-120.63
X80.25Y-128.25
X80.25Y-145.63
X80.25Y-153.25
X83.96Y-121.5
X84.01Y-146.1
X84.21Y-74.25
X84.21Y-98.25
X86.5Y-121.5
X86.55Y-146.1
X86.75Y-74.25
X86.75Y-98.25
X87.63Y-160.25
X87.63Y-165.25
X87.63Y-170.25
X87.63Y-175.25
X87.63Y-180.25
X87.63Y-185.25
X87.63Y-190.25
X95.25Y-160.25
X95.25Y-165.25
X95.25Y-170.25
X95.25Y-175.25
X95.25Y-180.25
X95.25Y-185.25
X95.25Y-190.25
X98.71Y-160.25
X98.71Y-165.25
X98.71Y-170.25
X98.71Y-175.25
X98.71Y-180.25
X98.71Y-185.25
X98.71Y-190.25
X99.4Y0.62
X99.4Y-7.
X101.25Y-160.25
X101.25Y-165.25
X101.25Y-170.25
X101.25Y-175.25
X101.25Y-180.25
X101.25Y-185.25
X101.25Y-190.25
X103.36Y-1.75
X105.9Y-1.75
X108.75Y-160.25
X108.75Y-165.25
X108.75Y-170.25
X108.75Y-175.25
X108.75Y-180.25
X108.75Y-185.25
X108.75Y-190.25
X111.29Y-160.25
X111.29Y-165.25
X111.29Y-170.25
X111.29Y-175.25
X111.29Y-180.25
X111.29Y-185.25
X111.29Y-190.25
X114.75Y-160.25
X114.75Y-165.25
X114.75Y-170.25
X114.75Y-175.25
X114.75Y-180.25
X114.75Y-185.25
X114.75Y-190.25
X122.37Y-160.25
X122.37Y-165.25
X122.37Y-170.25
X122.37Y-175.25
X122.37Y-180.25
X122.37Y-185.25
X122.37Y-190.25
X122.6Y-74.
X122.6Y-97.5
X122.6Y-121.4
X122.6Y-146.
X125.14Y-74.
X125.14Y-97.5
X125.14Y-121.4
X125.14Y-146.
X129.45Y-73.13
X129.45Y-80.75
X129.45Y-96.63
X129.45Y-104.25
X129.45Y-120.63
X129.45Y-128.25
X129.45Y-145.63
X129.45Y-153.25
X142.Y-135.6
X144.54Y-135.6
X149.25Y-126.75
X149.25Y-134.37
T5
X80.39Y-28.02
X80.39Y-30.56
X80.39Y-33.1
X80.39Y-35.64
X80.39Y-38.18
X80.39Y-40.72
X80.39Y-45.8
X80.39Y-48.34
X80.39Y-50.88
X80.39Y-53.42
X80.39Y-55.96
X80.39Y-58.5
X128.65Y-18.876
X128.65Y-21.416
X128.65Y-23.956
X128.65Y-26.496
X128.65Y-29.036
X128.65Y-31.576
X128.65Y-34.116
X128.65Y-36.656
X128.65Y-40.72
X128.65Y-43.26
X128.65Y-45.8
X128.65Y-48.34
X128.65Y-50.88
X128.65Y-53.42
X128.65Y-55.96
X128.65Y-58.5
T6
X63.75Y-12.25
X63.75Y-38.25
X63.75Y-64.25
X63.75Y-90.25
X63.75Y-116.25
X66.25Y-12.25
X66.25Y-38.25
X66.25Y-64.25
X66.25Y-90.25
X66.25Y-116.25
X68.75Y-12.25
X68.75Y-38.25
X68.75Y-64.25
X68.75Y-90.25
X68.75Y-116.25
X102.5Y-156.
X105.Y-156.
X107.5Y-156.
X140.75Y-12.25
X140.75Y-38.25
X140.75Y-64.25
X140.75Y-90.25
X140.75Y-116.25
X143.25Y-12.25
X143.25Y-38.25
X143.25Y-64.25
X143.25Y-90.25
X143.25Y-116.25
X145.75Y-12.25
X145.75Y-38.25
X145.75Y-64.25
X145.75Y-90.25
X145.75Y-116.25
T7
X63.501Y-189.247
X67.499Y-145.753
X67.499Y-189.247
X82.753Y-202.501
X82.753Y-206.499
X126.247Y-206.499
X140.501Y-189.247
X144.499Y-145.753
X144.499Y-189.247
T8
X61.Y-5.25
X61.Y-31.25
X61.Y-57.25
X61.Y-83.25
X61.Y-109.25
X71.5Y-5.25
X71.5Y-31.25
X71.5Y-57.25
X71.5Y-83.25
X71.5Y-109.25
X99.75Y-149.
X110.25Y-33.75
X110.25Y-149.
X138.Y-5.25
X138.Y-31.25
X138.Y-57.25
X138.Y-83.25
X138.Y-109.25
X148.5Y-5.25
X148.5Y-31.25
X148.5Y-57.25
X148.5Y-83.25
X148.5Y-109.25
T9
X99.05Y-33.75
T10
X57.75Y2.25
X57.75Y-209.
X57.9Y-99.2
X150.1Y-99.2
X151.25Y2.25
X151.25Y-209.
T0
M30
